<svg width="912" height="818" viewBox="0 0 912 818" fill="none" xmlns="http://www.w3.org/2000/svg">
<path fill-rule="evenodd" clip-rule="evenodd" d="M156.266 0H338.076C510.57 0 519.886 0.0901051 519.866 1.75204C519.853 2.92007 520.938 3.75771 523.122 4.26497C524.925 4.68546 532.598 5.02586 540.171 5.01585C552.632 5.00584 553.944 5.17603 553.924 6.75788C553.911 7.92591 554.996 8.76355 557.18 9.27081C558.983 9.6913 564.402 10.0317 569.22 10.0217C576.913 10.0117 577.985 10.2219 577.965 11.7637C577.955 12.9952 579.067 13.736 581.721 14.2566C583.795 14.6671 588.092 14.9975 591.258 15.0075C596.076 15.0175 597.018 15.3078 596.998 16.7696C596.988 18.001 598.099 18.7418 600.754 19.2625C602.828 19.6729 606.223 20.0033 608.287 20.0133C611.202 20.0233 612.043 20.4138 612.023 21.7754C612.013 23.0068 613.125 23.7477 615.78 24.2683C617.853 24.6788 621.249 25.0092 623.312 25.0192C626.398 25.0292 627.069 25.3896 627.069 27.0315C627.069 28.7035 627.9 29.1139 632.077 29.5344C636.254 29.9549 637.086 30.3654 637.086 32.0373C637.086 33.6893 637.747 34.0397 640.842 34.0297C642.906 34.0197 646.071 34.3601 647.874 34.7805C650.058 35.2878 651.143 36.1254 651.13 37.2935C651.11 38.7352 652.011 39.0455 656.118 39.0455C660.796 39.0455 661.127 39.2157 661.127 41.5484C661.127 43.8812 661.457 44.0514 666.135 44.0514C670.813 44.0514 671.144 44.2216 671.144 46.5543C671.144 48.887 671.474 49.0572 676.152 49.0572C680.83 49.0572 681.161 49.2274 681.161 51.5601C681.161 53.8928 681.492 54.063 686.17 54.063C690.848 54.063 691.178 54.2332 691.178 56.5659C691.178 58.8686 691.549 59.0689 695.686 59.0689C699.823 59.0689 700.193 59.2691 700.193 61.5718C700.193 63.5741 700.694 64.0747 702.698 64.0747C704.531 64.0747 705.202 64.6053 705.202 66.077C705.202 67.749 706.033 68.1595 710.211 68.5799C714.388 69.0004 715.219 69.4109 715.219 71.0829C715.219 72.5546 715.89 73.0852 717.723 73.0852C719.727 73.0852 720.228 73.5858 720.228 75.5881C720.228 77.8107 720.728 78.1511 724.735 78.5916C728.411 79.0021 729.243 79.4626 729.243 81.0945C729.243 82.6564 729.914 83.0969 732.248 83.0969C734.782 83.0969 735.253 83.4873 735.253 85.5998C735.253 87.6021 735.754 88.1027 737.757 88.1027C739.761 88.1027 740.262 88.6033 740.262 90.6056C740.262 92.9083 740.632 93.1086 744.769 93.1086C748.906 93.1086 749.277 93.3088 749.277 95.6115C749.277 97.6138 749.778 98.1144 751.781 98.1144C753.785 98.1144 754.286 98.615 754.286 100.617C754.286 102.62 754.787 103.12 756.79 103.12C758.793 103.12 759.294 103.621 759.294 105.623C759.294 107.625 759.795 108.126 761.798 108.126C763.632 108.126 764.303 108.657 764.303 110.128C764.303 111.6 764.974 112.131 766.807 112.131C768.81 112.131 769.311 112.631 769.311 114.634C769.311 116.856 769.812 117.197 773.819 117.637C777.575 118.058 778.367 118.518 778.577 120.39C778.744 121.892 779.579 122.726 781.081 122.893C782.584 123.06 783.419 123.894 783.586 125.396C783.753 126.898 784.587 127.732 786.09 127.899C787.973 128.109 788.424 128.9 788.845 132.655C789.285 136.659 789.626 137.16 791.85 137.16C793.683 137.16 794.354 137.691 794.354 139.162C794.354 140.497 795.022 141.165 796.357 141.165C797.81 141.165 798.431 141.915 798.611 143.918C798.791 145.94 799.463 146.741 801.115 146.921C802.618 147.088 803.453 147.922 803.62 149.424C803.787 150.926 804.621 151.76 806.124 151.927C807.797 152.117 808.378 152.828 808.378 154.68C808.378 156.683 808.879 157.183 810.882 157.183C812.885 157.183 813.386 157.684 813.386 159.686C813.386 161.689 813.887 162.189 815.891 162.189C817.894 162.189 818.395 162.69 818.395 164.692C818.395 166.524 818.926 167.195 820.398 167.195C822.031 167.195 822.492 168.026 822.903 171.7C823.343 175.705 823.684 176.205 825.908 176.205C827.911 176.205 828.412 176.706 828.412 178.708C828.412 180.54 828.943 181.211 830.415 181.211C832.048 181.211 832.509 182.042 832.92 185.717C833.33 189.391 833.791 190.222 835.424 190.222C836.987 190.222 837.427 190.893 837.427 193.225C837.427 195.758 837.818 196.229 839.932 196.229C842.155 196.229 842.496 196.729 842.937 200.734C843.347 204.408 843.808 205.239 845.441 205.239C847.004 205.239 847.444 205.91 847.444 208.243C847.444 210.776 847.835 211.246 849.949 211.246C852.253 211.246 852.453 211.617 852.453 215.752C852.453 219.886 852.653 220.257 854.957 220.257C857.291 220.257 857.461 220.587 857.461 225.263C857.461 229.938 857.632 230.268 859.966 230.268C862.3 230.268 862.47 230.599 862.47 235.274C862.47 239.95 862.64 240.28 864.974 240.28C867.278 240.28 867.479 240.651 867.479 244.785C867.479 248.62 867.779 249.291 869.482 249.291C871.155 249.291 871.565 250.122 871.986 254.296C872.407 258.471 872.818 259.302 874.49 259.302C876.163 259.302 876.574 260.133 876.995 264.308C877.415 268.483 877.826 269.314 879.499 269.314C881.142 269.314 881.502 269.985 881.512 273.068C881.522 275.131 881.853 278.525 882.264 280.597C882.785 283.25 883.526 284.362 884.758 284.352C886.261 284.331 886.511 285.323 886.511 291.34C886.511 298.148 886.581 298.348 889.015 298.348C891.459 298.348 891.52 298.518 891.52 305.857C891.52 313.195 891.58 313.365 894.024 313.365C896.518 313.365 896.528 313.395 896.528 322.876C896.528 331.997 896.618 332.398 898.782 332.638C900.966 332.878 901.046 333.259 901.537 357.417H906.545V374.437C906.545 389.985 906.695 391.456 908.298 391.446C909.751 391.436 910.181 392.758 910.802 399.205C911.223 403.48 911.564 441.214 911.564 483.063C911.564 524.912 911.223 561.294 910.812 563.927C910.241 567.522 909.62 568.693 908.298 568.683C906.705 568.663 906.545 570.015 906.545 597.697H904.041C901.547 597.697 901.537 597.727 901.537 607.208C901.537 616.689 901.527 616.719 899.032 616.719C896.588 616.719 896.528 616.889 896.528 624.228C896.528 631.566 896.468 631.737 894.024 631.737C891.59 631.737 891.52 631.937 891.52 638.745C891.52 645.272 891.369 645.773 889.266 646.003C887.322 646.223 886.982 646.904 886.761 651.009C886.541 655.114 886.2 655.795 884.257 656.015C882.314 656.235 881.973 656.916 881.753 661.021C881.543 665.025 881.182 665.776 879.499 665.776C877.826 665.776 877.415 666.607 876.995 670.782C876.574 674.957 876.163 675.788 874.49 675.788C873.018 675.788 872.487 676.459 872.487 678.291C872.487 680.223 871.976 680.794 870.233 680.774C868.29 680.764 867.879 681.464 867.228 685.779C866.617 689.884 866.106 690.805 864.473 690.805C863.001 690.805 862.47 691.476 862.47 693.308C862.47 695.311 861.969 695.811 859.966 695.811C857.662 695.811 857.461 696.182 857.461 700.316C857.461 704.451 857.261 704.822 854.957 704.822C852.954 704.822 852.453 705.322 852.453 707.325C852.453 709.327 851.952 709.828 849.949 709.828C847.945 709.828 847.444 710.328 847.444 712.33C847.444 714.163 846.913 714.833 845.441 714.833C843.768 714.833 843.357 715.664 842.937 719.839C842.486 724.374 842.205 724.845 839.932 724.845C837.928 724.845 837.427 725.346 837.427 727.348C837.427 729.35 836.926 729.851 834.923 729.851C832.92 729.851 832.419 730.351 832.419 732.354C832.419 734.356 831.918 734.857 829.915 734.857C828.081 734.857 827.41 735.387 827.41 736.859C827.41 738.194 826.659 738.945 825.156 739.112C823.654 739.279 822.819 740.113 822.652 741.615C822.442 743.497 821.65 743.947 817.894 744.368C813.887 744.808 813.386 745.149 813.386 747.371C813.386 749.374 812.885 749.874 810.882 749.874C809.049 749.874 808.378 750.405 808.378 751.877C808.378 753.348 807.707 753.879 805.874 753.879C803.87 753.879 803.369 754.379 803.369 756.382C803.369 758.384 802.868 758.885 800.865 758.885C798.862 758.885 798.361 759.385 798.361 761.388C798.361 763.69 797.99 763.891 793.853 763.891C789.716 763.891 789.345 764.091 789.345 766.393C789.345 768.506 788.875 768.896 786.34 768.896C783.806 768.896 783.335 769.287 783.335 771.399C783.335 773.702 782.965 773.902 778.827 773.902C774.69 773.902 774.32 774.102 774.32 776.405C774.32 778.518 773.849 778.908 771.315 778.908C768.981 778.908 768.31 779.349 768.31 780.91C768.31 782.542 767.478 783.003 763.802 783.413C760.126 783.824 759.294 784.284 759.294 785.916C759.294 787.588 758.463 787.999 754.286 788.419C750.369 788.81 749.277 789.3 749.297 790.672C749.307 791.903 748.195 792.644 745.541 793.165C743.467 793.575 740.302 793.906 738.509 793.916C736.075 793.926 735.253 794.366 735.273 795.678C735.283 797.019 734.101 797.61 730.265 798.181C726.158 798.791 725.236 799.302 725.236 800.934C725.236 802.576 724.565 802.936 721.48 802.946C719.416 802.956 716.02 803.286 713.947 803.697C711.292 804.218 710.18 804.958 710.19 806.19C710.21 807.742 709.069 807.942 700.193 807.942C690.847 807.942 690.176 807.812 690.176 805.94C690.176 804.605 689.509 803.937 688.173 803.937C686.61 803.937 686.17 803.266 686.17 800.934C686.17 798.401 685.779 797.93 683.665 797.93C681.361 797.93 681.161 797.56 681.161 793.425C681.161 789.29 680.961 788.92 678.657 788.92C676.323 788.92 676.152 788.589 676.152 783.914C676.152 779.238 675.982 778.908 673.648 778.908C671.314 778.908 671.144 778.578 671.144 773.902C671.144 769.227 670.974 768.896 668.64 768.896C666.636 768.896 666.135 768.396 666.135 766.393C666.135 764.561 665.604 763.891 664.132 763.891C662.459 763.891 662.048 763.06 661.628 758.885C661.207 754.71 660.796 753.879 659.123 753.879C657.491 753.879 657.03 753.048 656.619 749.374C656.208 745.699 655.748 744.868 654.115 744.868C652.442 744.868 652.031 744.037 651.611 739.863C651.19 735.688 650.779 734.857 649.106 734.857C647.634 734.857 647.103 734.186 647.103 732.354C647.103 730.351 646.602 729.851 644.599 729.851C642.265 729.851 642.094 729.52 642.094 724.845C642.094 720.17 641.924 719.839 639.59 719.839C637.256 719.839 637.086 719.509 637.086 714.833C637.086 710.158 636.916 709.828 634.582 709.828C632.278 709.828 632.077 709.457 632.077 705.322C632.077 701.187 631.877 700.817 629.573 700.817C627.239 700.817 627.069 700.487 627.069 695.811C627.069 691.136 626.898 690.805 624.565 690.805C622.561 690.805 622.06 690.305 622.06 688.302C622.06 686.47 621.529 685.799 620.057 685.799C618.384 685.799 617.973 684.969 617.553 680.794C617.132 676.619 616.721 675.788 615.048 675.788C613.415 675.788 612.955 674.957 612.544 671.283C612.133 667.608 611.673 666.777 610.04 666.777C608.587 666.777 607.966 666.026 607.786 664.024C607.606 662.002 606.934 661.201 605.282 661.021C603.338 660.8 602.998 660.12 602.777 656.015C602.557 651.91 602.216 651.229 600.273 651.009C598.31 650.789 598.019 650.188 598.019 646.253C598.019 642.119 597.819 641.748 595.515 641.748C593.231 641.748 592.991 641.328 592.76 636.993C592.54 632.888 592.199 632.207 590.256 631.987C588.583 631.797 588.002 631.086 588.002 629.234C588.002 627.231 587.501 626.731 585.498 626.731C583.164 626.731 582.994 626.4 582.994 621.725C582.994 617.049 582.823 616.719 580.489 616.719C578.185 616.719 577.985 616.349 577.985 612.214C577.985 608.279 577.695 607.678 575.731 607.458C573.788 607.238 573.447 606.557 573.227 602.452C573.007 598.348 572.666 597.667 570.723 597.447C569.22 597.28 568.385 596.445 568.219 594.944C568.068 593.552 567.297 592.701 566.215 592.701C564.843 592.711 564.292 591.48 563.651 586.944C563.21 583.771 563.1 579.486 563.4 577.423C563.841 574.47 564.442 573.619 566.215 573.419C567.718 573.252 568.552 572.417 568.719 570.916C568.886 569.414 569.638 568.663 570.973 568.663C572.446 568.663 572.977 567.992 572.977 566.16C572.977 564.158 573.477 563.657 575.481 563.657C577.484 563.657 577.985 563.157 577.985 561.154C577.985 559.152 578.486 558.651 580.489 558.651C582.493 558.651 582.994 558.151 582.994 556.148C582.994 554.146 583.495 553.645 585.498 553.645C587.501 553.645 588.002 553.145 588.002 551.143C588.002 549.31 588.533 548.64 590.006 548.64C591.638 548.64 592.099 547.809 592.51 544.134C592.931 540.38 593.391 539.589 595.265 539.379C596.917 539.199 597.589 538.398 597.769 536.375C597.969 534.173 598.52 533.622 600.524 533.622C602.527 533.622 603.028 533.122 603.028 531.119C603.028 529.117 603.529 528.616 605.532 528.616C607.536 528.616 608.036 528.116 608.036 526.113C608.036 524.281 608.567 523.61 610.04 523.61C611.375 523.61 612.127 522.86 612.294 521.358C612.461 519.856 613.295 519.022 614.798 518.855C616.681 518.645 617.132 517.854 617.553 514.099C617.963 510.425 618.424 509.594 620.057 509.594C621.529 509.594 622.06 508.923 622.06 507.091C622.06 505.089 622.561 504.588 624.565 504.588C626.568 504.588 627.069 504.088 627.069 502.085C627.069 500.083 627.57 499.582 629.573 499.582C631.576 499.582 632.077 499.082 632.077 497.079C632.077 495.077 632.578 494.577 634.582 494.577C636.585 494.577 637.086 494.076 637.086 492.074C637.086 490.071 637.587 489.571 639.59 489.571C641.594 489.571 642.094 489.07 642.094 487.068C642.094 485.236 642.625 484.565 644.098 484.565C645.731 484.565 646.191 483.734 646.602 480.06C647.023 476.305 647.484 475.514 649.357 475.304C650.859 475.137 651.694 474.303 651.861 472.801C652.028 471.299 652.863 470.465 654.365 470.298C656.048 470.108 656.559 469.477 656.369 467.795C656.168 465.993 656.619 465.543 658.623 465.543C660.626 465.543 661.127 465.042 661.127 463.04C661.127 461.037 661.628 460.537 663.631 460.537C665.635 460.537 666.135 460.036 666.135 458.034C666.135 456.032 666.636 455.531 668.64 455.531C670.944 455.531 671.144 455.161 671.144 451.026C671.144 446.891 671.344 446.521 673.648 446.521C675.652 446.521 676.152 446.02 676.152 444.018C676.152 442.165 676.733 441.455 678.406 441.264C679.909 441.098 680.744 440.263 680.911 438.762C681.078 437.26 681.912 436.425 683.415 436.259C684.917 436.092 685.752 435.257 685.919 433.756C686.086 432.254 686.921 431.42 688.423 431.253C689.926 431.086 690.761 430.252 690.928 428.75C691.095 427.248 691.846 426.497 693.181 426.497C694.654 426.497 695.185 425.826 695.185 423.994C695.185 421.992 695.686 421.491 697.689 421.491C699.963 421.491 700.244 421.021 700.694 416.486C701.115 412.311 701.526 411.48 703.199 411.48C704.671 411.48 705.202 410.809 705.202 408.977C705.202 406.974 705.703 406.474 707.706 406.474C709.71 406.474 710.211 405.973 710.211 403.971C710.211 401.969 710.711 401.468 712.715 401.468C714.718 401.468 715.219 400.967 715.219 398.965C715.219 396.963 715.72 396.462 717.723 396.462C719.727 396.462 720.228 395.962 720.228 393.959C720.228 391.957 720.728 391.456 722.732 391.456C725.036 391.456 725.236 391.086 725.236 386.951C725.236 382.816 725.436 382.446 727.74 382.446C729.744 382.446 730.245 381.945 730.245 379.943C730.245 377.941 730.745 377.44 732.749 377.44C734.752 377.44 735.253 376.939 735.253 374.937C735.253 373.085 735.834 372.374 737.507 372.184C739.01 372.017 739.844 371.183 740.011 369.681C740.178 368.179 740.93 367.428 742.265 367.428C743.738 367.428 744.269 366.758 744.269 364.925C744.269 362.923 744.769 362.423 746.773 362.423C748.776 362.423 749.277 361.922 749.277 359.92C749.277 357.987 749.788 357.417 751.531 357.437C753.374 357.447 753.925 356.726 754.536 353.432C754.947 351.219 755.057 348.957 754.786 348.406C754.456 347.755 732.078 347.405 627.069 347.405V349.908C627.069 351.91 626.568 352.411 624.565 352.411C622.561 352.411 622.06 352.911 622.06 354.914C622.06 356.916 621.559 357.417 619.556 357.417C617.553 357.417 617.052 357.917 617.052 359.92C617.052 361.752 616.521 362.423 615.048 362.423C613.415 362.423 612.955 363.253 612.544 366.928C612.123 370.682 611.673 371.473 609.789 371.683C608.137 371.864 607.465 372.664 607.285 374.687C607.105 376.689 606.484 377.44 605.031 377.44C603.696 377.44 602.944 378.191 602.777 379.693C602.61 381.194 601.776 382.029 600.273 382.196C598.771 382.362 597.936 383.197 597.769 384.698C597.602 386.2 596.767 387.035 595.265 387.201C593.762 387.368 592.927 388.203 592.76 389.704C592.593 391.206 591.759 392.04 590.256 392.207C588.293 392.428 588.002 393.028 588.002 396.963C588.002 401.098 587.802 401.468 585.498 401.468C583.495 401.468 582.994 401.969 582.994 403.971C582.994 405.973 582.493 406.474 580.489 406.474C578.486 406.474 577.985 406.974 577.985 408.977C577.985 410.979 577.484 411.48 575.481 411.48C573.477 411.48 572.977 411.98 572.977 413.983C572.977 415.815 572.446 416.486 570.973 416.486C569.34 416.486 568.88 417.317 568.469 420.991C568.048 424.745 567.597 425.536 565.714 425.746C564.212 425.913 563.377 426.748 563.21 428.249C563.043 429.751 562.292 430.502 560.956 430.502C559.621 430.502 558.786 431.336 558.452 433.005C558.118 434.673 557.283 435.508 555.948 435.508C554.475 435.508 553.944 436.179 553.944 438.011C553.944 440.013 553.443 440.514 551.44 440.514C549.436 440.514 548.886 441.064 548.685 443.267C548.505 445.289 547.834 446.09 546.181 446.27C544.218 446.491 543.927 447.091 543.927 451.026C543.927 455.161 543.727 455.531 541.423 455.531C539.419 455.531 538.919 456.032 538.919 458.034C538.919 460.036 538.418 460.537 536.414 460.537C534.411 460.537 533.91 461.037 533.91 463.04C533.91 465.042 533.409 465.543 531.406 465.543C529.402 465.543 528.901 466.043 528.901 468.046C528.901 469.878 528.371 470.549 526.898 470.549C525.265 470.549 524.804 471.38 524.394 475.054C523.953 479.059 523.612 479.559 521.389 479.559C519.385 479.559 518.884 480.06 518.884 482.062C518.884 483.914 518.303 484.625 516.631 484.815C515.128 484.982 514.293 485.816 514.126 487.318C513.959 488.82 513.208 489.571 511.872 489.571C510.4 489.571 509.869 490.242 509.869 492.074C509.869 494.076 509.368 494.577 507.365 494.577C505.361 494.577 504.861 495.077 504.861 497.079C504.861 499.082 504.36 499.582 502.356 499.582C500.353 499.582 499.852 500.083 499.852 502.085C499.852 504.088 499.351 504.588 497.348 504.588C495.014 504.588 494.843 504.258 494.843 499.582C494.843 494.907 494.673 494.577 492.339 494.577C490.005 494.577 489.835 494.246 489.835 489.571C489.835 484.895 489.665 484.565 487.331 484.565C485.027 484.565 484.826 484.194 484.826 480.06C484.826 476.125 484.536 475.524 482.573 475.304C480.629 475.084 480.289 474.403 480.068 470.298C479.848 466.193 479.507 465.513 477.564 465.292C475.911 465.112 475.24 464.311 475.06 462.289C474.879 460.287 474.258 459.536 472.806 459.536C471.173 459.536 470.712 458.705 470.302 455.03C469.891 451.356 469.43 450.525 467.797 450.525C466.114 450.525 465.754 449.774 465.543 445.77C465.323 441.665 464.983 440.984 463.039 440.764C461.096 440.544 460.755 439.863 460.535 435.758C460.315 431.653 459.974 430.972 458.031 430.752C456.067 430.532 455.777 429.931 455.777 425.997C455.777 421.862 455.577 421.491 453.273 421.491C450.939 421.491 450.768 421.161 450.768 416.486C450.768 411.81 450.598 411.48 448.264 411.48C445.93 411.48 445.76 411.149 445.76 406.474C445.76 401.798 445.589 401.468 443.255 401.468C441.252 401.468 440.751 400.967 440.751 398.965C440.751 397.133 440.22 396.462 438.748 396.462C437.115 396.462 436.604 395.541 435.993 391.436C435.422 387.602 434.831 386.42 433.489 386.431C432.147 386.451 431.616 385.389 431.235 381.945C430.824 378.271 430.364 377.44 428.731 377.44C427.058 377.44 426.647 376.609 426.226 372.434C425.806 368.259 425.395 367.428 423.722 367.428C422.049 367.428 421.639 366.597 421.218 362.423C420.797 358.248 420.387 357.417 418.714 357.417C417.101 357.417 416.61 356.586 416.209 353.162C415.759 349.337 415.378 348.827 412.453 348.146C410.66 347.725 380.909 347.385 346.34 347.395C296.726 347.405 283.483 347.665 283.493 348.656C283.503 349.347 283.834 351.61 284.244 353.682C284.765 356.335 285.507 357.447 286.739 357.437C288.111 357.417 288.602 358.508 288.993 362.423C289.413 366.597 289.824 367.428 291.497 367.428C293.13 367.428 293.59 368.259 294.001 371.934C294.412 375.608 294.873 376.439 296.505 376.439C298.068 376.439 298.509 377.11 298.509 379.442C298.509 381.975 298.899 382.446 301.013 382.446C303.297 382.446 303.537 382.866 303.768 387.201C303.988 391.306 304.329 391.987 306.272 392.207C308.235 392.428 308.526 393.028 308.526 396.963C308.526 401.098 308.726 401.468 311.03 401.468C313.364 401.468 313.534 401.798 313.534 406.474C313.534 411.149 313.705 411.48 316.039 411.48C318.042 411.48 318.543 411.98 318.543 413.983C318.543 415.815 319.074 416.486 320.546 416.486C322.219 416.486 322.63 417.317 323.051 421.491C323.471 425.666 323.882 426.497 325.555 426.497C327.188 426.497 327.648 427.328 328.059 431.002C328.47 434.677 328.931 435.508 330.563 435.508C332.236 435.508 332.647 436.339 333.068 440.514C333.488 444.688 333.899 445.519 335.572 445.519C337.245 445.519 337.656 446.35 338.076 450.525C338.497 454.7 338.908 455.531 340.581 455.531C342.053 455.531 342.584 456.202 342.584 458.034C342.584 460.036 343.085 460.537 345.088 460.537C347.372 460.537 347.613 460.957 347.843 465.292C348.063 469.397 348.404 470.078 350.347 470.298C352.31 470.519 352.601 471.119 352.601 475.054C352.601 479.189 352.801 479.559 355.105 479.559C357.439 479.559 357.61 479.889 357.61 484.565C357.61 489.24 357.78 489.571 360.114 489.571C362.117 489.571 362.618 490.071 362.618 492.074C362.618 493.906 363.149 494.577 364.621 494.577C366.294 494.577 366.705 495.408 367.126 499.582C367.566 503.958 367.907 504.588 369.88 504.598C371.323 504.598 372.164 505.229 372.204 506.35C372.244 507.311 372.355 509.554 372.455 511.346C372.595 513.869 373.086 514.6 374.639 514.6C376.271 514.6 376.732 515.431 377.143 519.105C377.554 522.779 378.014 523.61 379.647 523.61C381.1 523.61 381.721 524.361 381.901 526.364C382.081 528.386 382.752 529.187 384.405 529.367C386.369 529.587 386.659 530.188 386.659 534.123C386.659 538.258 386.859 538.628 389.163 538.628C391.497 538.628 391.668 538.958 391.668 543.634C391.668 548.309 391.838 548.64 394.172 548.64C396.506 548.64 396.676 548.97 396.676 553.645C396.676 558.321 396.846 558.651 399.18 558.651C401.484 558.651 401.685 559.022 401.685 563.157C401.685 567.291 401.885 567.662 404.189 567.662C406.303 567.662 406.693 568.132 406.693 570.665C406.693 573.198 407.084 573.669 409.197 573.669C411.632 573.669 411.702 573.869 411.702 580.677C411.702 587.485 411.632 587.685 409.197 587.685C407.194 587.685 406.693 588.186 406.693 590.188C406.693 592.19 406.192 592.691 404.189 592.691C402.185 592.691 401.685 593.192 401.685 595.194C401.685 597.196 401.184 597.697 399.18 597.697C397.177 597.697 396.676 598.197 396.676 600.2C396.676 602.202 396.175 602.703 394.172 602.703C392.168 602.703 391.668 603.203 391.668 605.206C391.668 607.038 391.137 607.708 389.664 607.708C388.031 607.708 387.571 608.539 387.16 612.214C386.719 616.218 386.379 616.719 384.155 616.719C382.151 616.719 381.651 617.22 381.651 619.222C381.651 621.074 381.07 621.785 379.397 621.975C377.894 622.142 377.059 622.976 376.892 624.478C376.725 625.98 375.974 626.731 374.639 626.731C373.166 626.731 372.635 627.401 372.635 629.234C372.635 631.236 372.134 631.737 370.131 631.737C368.127 631.737 367.627 632.237 367.627 634.239C367.627 636.242 367.126 636.742 365.122 636.742C363.119 636.742 362.618 637.243 362.618 639.245C362.618 641.248 362.117 641.748 360.114 641.748C357.81 641.748 357.61 642.119 357.61 646.253C357.61 650.388 357.409 650.759 355.105 650.759C353.102 650.759 352.601 651.259 352.601 653.262C352.601 655.264 352.1 655.765 350.097 655.765C348.093 655.765 347.592 656.265 347.592 658.267C347.592 660.12 347.011 660.83 345.339 661.021C343.836 661.187 343.001 662.022 342.834 663.524C342.667 665.025 341.833 665.86 340.33 666.026C338.828 666.193 337.993 667.028 337.826 668.529C337.659 670.031 336.908 670.782 335.572 670.782C334.099 670.782 333.569 671.453 333.569 673.285C333.569 675.287 333.068 675.788 331.064 675.788C328.84 675.788 328.5 676.288 328.059 680.293C327.638 684.047 327.188 684.838 325.304 685.049C323.802 685.216 322.967 686.05 322.8 687.552C322.633 689.053 321.882 689.804 320.546 689.804C319.094 689.804 318.473 690.555 318.293 692.557C318.112 694.58 317.441 695.381 315.788 695.561C314.115 695.751 313.534 696.462 313.534 698.314C313.534 700.316 313.034 700.817 311.03 700.817C309.027 700.817 308.526 701.318 308.526 703.32C308.526 705.322 308.025 705.823 306.022 705.823C304.018 705.823 303.517 706.323 303.517 708.326C303.517 710.158 302.986 710.829 301.514 710.829C299.881 710.829 299.42 711.66 299.01 715.334C298.569 719.339 298.228 719.839 296.005 719.839C294.001 719.839 293.5 720.34 293.5 722.342C293.5 724.194 292.919 724.915 291.246 725.095C289.564 725.286 289.053 725.916 289.243 727.598C289.443 729.4 288.993 729.851 286.989 729.851C285.136 729.851 284.425 730.432 284.234 732.104C284.068 733.605 283.233 734.44 281.73 734.606C280.057 734.797 279.476 735.507 279.476 737.36C279.476 739.362 278.975 739.863 276.972 739.863C274.969 739.863 274.468 740.363 274.468 742.365C274.468 744.368 273.967 744.868 271.964 744.868C269.66 744.868 269.459 745.239 269.459 749.374C269.459 753.508 269.259 753.879 266.955 753.879C264.952 753.879 264.451 754.379 264.451 756.382C264.451 758.384 263.95 758.885 261.946 758.885C259.943 758.885 259.442 759.385 259.442 761.388C259.442 763.39 258.941 763.891 256.938 763.891C254.935 763.891 254.434 764.391 254.434 766.393C254.434 768.246 253.853 768.956 252.18 769.147C250.497 769.337 249.986 769.968 250.176 771.65C250.377 773.452 249.926 773.902 247.923 773.902C245.919 773.902 245.418 774.403 245.418 776.405C245.418 778.407 244.917 778.908 242.914 778.908C240.69 778.908 240.35 779.409 239.909 783.413C239.498 787.088 239.037 787.919 237.405 787.919C236.069 787.919 235.234 788.753 234.9 790.422C234.566 792.09 233.732 792.924 232.396 792.924C230.924 792.924 230.393 793.595 230.393 795.427C230.393 797.43 229.892 797.93 227.888 797.93C225.885 797.93 225.384 798.431 225.384 800.433C225.384 802.436 224.883 802.936 222.88 802.936C220.876 802.936 220.376 803.437 220.376 805.439C220.376 807.441 219.875 807.942 217.871 807.942C215.868 807.942 215.367 808.442 215.367 810.445C215.367 812.297 214.786 813.008 213.113 813.198C211.611 813.368 210.779 814.199 210.359 817.954H156.266V0ZM471.003 656.766H480.088L480.198 661.521C480.309 665.666 480.609 666.307 482.573 666.527C484.536 666.747 484.826 667.348 484.826 671.283C484.826 675.417 485.027 675.788 487.331 675.788C489.665 675.788 489.835 676.118 489.835 680.794C489.835 685.469 490.005 685.799 492.339 685.799C494.673 685.799 494.843 686.13 494.843 690.805C494.843 695.481 495.014 695.811 497.348 695.811C499.652 695.811 499.852 696.182 499.852 700.316C499.852 704.251 500.142 704.852 502.106 705.072C503.759 705.252 504.43 706.053 504.61 708.076C504.79 710.078 505.411 710.829 506.864 710.829C508.497 710.829 508.957 711.66 509.368 715.334C509.779 719.008 510.24 719.839 511.872 719.839C513.545 719.839 513.956 720.67 514.377 724.845C514.797 729.02 515.208 729.851 516.881 729.851C518.554 729.851 518.965 730.682 519.385 734.857C519.806 739.032 520.217 739.863 521.89 739.863C523.592 739.863 523.893 740.533 523.893 744.368C523.893 748.503 524.093 748.873 526.397 748.873C528.731 748.873 528.901 749.203 528.901 753.879C528.901 758.554 529.072 758.885 531.406 758.885C533.409 758.885 533.96 759.435 534.16 761.638C534.341 763.66 535.012 764.461 536.665 764.641C538.628 764.862 538.919 765.462 538.919 769.397C538.919 773.532 539.119 773.902 541.423 773.902C543.757 773.902 543.927 774.233 543.927 778.908C543.927 783.584 544.097 783.914 546.431 783.914C548.735 783.914 548.936 784.284 548.936 788.419C548.936 792.254 549.236 792.924 550.939 792.924C552.612 792.924 553.023 793.755 553.443 797.93C553.864 802.105 554.275 802.936 555.948 802.936C557.62 802.936 558.031 803.767 558.452 807.942C558.873 812.117 559.283 812.948 560.956 812.948C562.429 812.948 562.96 813.619 562.96 817.954H343.586V815.451C343.586 813.619 344.117 812.948 345.589 812.948C347.062 812.948 347.592 812.277 347.592 810.445C347.592 808.442 348.093 807.942 350.097 807.942C352.1 807.942 352.601 807.441 352.601 805.439C352.601 803.437 353.102 802.936 355.105 802.936C357.409 802.936 357.61 802.566 357.61 798.431C357.61 794.296 357.81 793.926 360.114 793.926C362.117 793.926 362.618 793.425 362.618 791.423C362.618 789.42 363.119 788.92 365.122 788.92C367.126 788.92 367.627 788.419 367.627 786.417C367.627 784.414 368.127 783.914 370.131 783.914C372.134 783.914 372.635 783.413 372.635 781.411C372.635 779.409 373.136 778.908 375.139 778.908C377.143 778.908 377.644 778.407 377.644 776.405C377.644 774.573 378.175 773.902 379.647 773.902C381.28 773.902 381.741 773.071 382.151 769.397C382.572 765.573 383.033 764.812 385.156 764.391C387.03 764.021 387.661 763.26 387.661 761.388C387.661 759.555 388.192 758.885 389.664 758.885C391 758.885 391.751 758.134 391.918 756.632C392.085 755.13 392.92 754.296 394.422 754.129C396.095 753.939 396.676 753.228 396.676 751.376C396.676 749.374 397.177 748.873 399.18 748.873C401.184 748.873 401.685 748.372 401.685 746.37C401.685 744.368 402.185 743.867 404.189 743.867C406.493 743.867 406.693 743.497 406.693 739.362C406.693 735.227 406.894 734.857 409.197 734.857C411.201 734.857 411.702 734.356 411.702 732.354C411.702 730.351 412.203 729.851 414.206 729.851C416.209 729.851 416.71 729.35 416.71 727.348C416.71 725.346 417.211 724.845 419.215 724.845C421.218 724.845 421.719 724.344 421.719 722.342C421.719 720.51 422.25 719.839 423.722 719.839C425.355 719.839 425.816 719.008 426.226 715.334C426.647 711.58 427.108 710.789 428.981 710.578C430.484 710.412 431.318 709.577 431.485 708.076C431.652 706.574 432.404 705.823 433.739 705.823C435.212 705.823 435.743 705.152 435.743 703.32C435.743 701.318 436.244 700.817 438.247 700.817C440.25 700.817 440.751 700.316 440.751 698.314C440.751 696.312 441.252 695.811 443.255 695.811C445.259 695.811 445.81 695.261 446.01 693.058C446.191 691.036 446.862 690.235 448.514 690.055C450.478 689.834 450.768 689.234 450.768 685.299C450.768 681.164 450.969 680.794 453.273 680.794C455.276 680.794 455.777 680.293 455.777 678.291C455.777 676.288 456.278 675.788 458.281 675.788C460.285 675.788 460.785 675.287 460.785 673.285C460.785 671.283 461.286 670.782 463.29 670.782C465.293 670.782 465.794 670.281 465.794 668.279C465.794 666.447 466.325 665.776 467.797 665.776C469.41 665.776 469.921 664.905 470.402 661.271L471.003 656.766Z" fill="#BC2128" fill-opacity="0.98"/>
<path d="M0 587.685V0H54.0922V587.685H0Z" fill="#FC5F08"/>
<path d="M79.1249 369.18C79.1249 173.562 78.8243 10.4722 78.4637 6.75788L77.8126 0H132.225V724.845H79.1349L79.1249 369.18Z" fill="#FC5F08"/>
<path d="M55.755 353.913C54.4328 358.378 54.2625 339.706 54.1824 179.459L54.0922 0H59.1007L59.0607 170.449C59.0306 265.399 58.6199 342.669 58.1291 344.902C57.6382 347.105 56.5764 351.159 55.755 353.913Z" fill="#FA5D07" fill-opacity="0.51"/>
<path d="M133.998 58.0677C132.436 64.4551 132.406 63.9846 132.316 32.2876L132.225 0H137.234L137.114 28.7836C137.054 44.612 136.683 56.2155 136.302 54.5636C135.651 51.8004 135.471 52.0907 133.998 58.0677Z" fill="#FA5D07" fill-opacity="0.51"/>
<path d="M154.263 817.954C152.27 817.954 152.26 817.283 152.26 408.977C152.26 0.670807 152.27 0 154.263 0C156.266 0 156.266 0.670807 156.266 408.977C156.266 817.283 156.266 817.954 154.263 817.954Z" fill="#FA5D07" fill-opacity="0.51"/>
<path d="M523.122 4.26497C520.938 3.75771 519.853 2.92007 519.866 1.75204C519.886 0.190222 521.118 0 531.406 0C542.264 0 542.925 0.12014 542.925 2.00233C542.925 3.67428 543.707 4.05473 547.683 4.32504C550.298 4.50525 546.582 4.73552 539.419 4.83564C532.257 4.94577 524.925 4.68546 523.122 4.26497Z" fill="#FA5D07" fill-opacity="0.51"/>
<path d="M557.18 9.27081C554.996 8.76355 553.911 7.92591 553.924 6.75788C553.944 5.25613 554.956 5.00584 560.956 5.00584C567.307 5.00584 567.968 5.19606 567.968 7.00817C567.968 8.84031 568.81 9.05055 577.985 9.51109C587.171 9.97163 588.002 10.1819 588.002 12.014C588.002 13.8061 588.753 14.0464 595.265 14.2666C601.966 14.4969 602.547 14.6871 602.777 16.7696C603.008 18.852 603.589 19.0422 610.29 19.2725C616.992 19.5027 617.573 19.693 617.803 21.7754C618.043 23.8778 618.534 24.028 625.065 24.028C631.877 24.028 632.077 24.0981 632.077 26.5309C632.077 28.7535 632.498 29.0338 635.834 29.0238C637.897 29.0138 641.073 29.3542 642.876 29.7747C645.053 30.282 646.138 31.1196 646.131 32.2876C646.111 33.6893 645.21 34.0397 641.594 34.0397C637.757 34.0397 637.086 33.7393 637.086 32.0373C637.086 30.3654 636.254 29.9549 632.077 29.5344C627.91 29.1139 627.069 28.7035 627.069 27.0315C627.069 25.3896 626.398 25.0292 623.312 25.0192C621.249 25.0092 617.863 24.6788 615.78 24.2683C613.125 23.7477 612.013 23.0068 612.023 21.7754C612.043 20.4138 611.202 20.0233 608.287 20.0133C606.223 20.0033 602.837 19.6729 600.754 19.2625C598.099 18.7418 596.988 18.001 596.998 16.7696C597.018 15.3078 596.076 15.0175 591.258 15.0075C588.092 14.9975 583.805 14.6671 581.721 14.2566C579.067 13.736 577.955 12.9952 577.965 11.7637C577.985 10.2219 576.913 10.0117 569.22 10.0217C564.402 10.0317 558.983 9.6913 557.18 9.27081Z" fill="#FA5D07" fill-opacity="0.51"/>
<path d="M78.8845 545.636C78.7442 644.481 78.634 564.058 78.634 366.928C78.634 169.798 78.7442 88.9237 78.8845 187.218C79.0247 285.513 79.0247 446.791 78.8845 545.636Z" fill="#FA5D07" fill-opacity="0.51"/>
<path d="M651.11 37.0432C651.11 35.7417 650.318 34.9107 648.856 34.6804C647.614 34.4802 648.746 34.2499 651.36 34.1798C655.808 34.0497 656.118 34.2099 656.118 36.5426C656.118 38.5449 655.617 39.0455 653.614 39.0455C651.781 39.0455 651.11 38.5149 651.11 37.0432Z" fill="#FA5D07" fill-opacity="0.51"/>
<path d="M663.631 44.0514C661.628 44.0514 661.127 43.5508 661.127 41.5484C661.127 39.5461 661.628 39.0455 663.631 39.0455C665.635 39.0455 666.135 39.5461 666.135 41.5484C666.135 43.5508 665.635 44.0514 663.631 44.0514Z" fill="#FA5D07" fill-opacity="0.51"/>
<path d="M673.648 49.0572C671.645 49.0572 671.144 48.5566 671.144 46.5543C671.144 44.5519 671.645 44.0514 673.648 44.0514C675.652 44.0514 676.152 44.5519 676.152 46.5543C676.152 48.5566 675.652 49.0572 673.648 49.0572Z" fill="#FA5D07" fill-opacity="0.51"/>
<path d="M683.665 54.063C681.662 54.063 681.161 53.5624 681.161 51.5601C681.161 49.5578 681.662 49.0572 683.665 49.0572C685.669 49.0572 686.17 49.5578 686.17 51.5601C686.17 53.5624 685.669 54.063 683.665 54.063Z" fill="#FA5D07" fill-opacity="0.51"/>
<path d="M695.686 59.0689C691.549 59.0689 691.178 58.8686 691.178 56.5659C691.178 54.7338 691.719 54.063 693.182 54.063C694.517 54.063 695.185 54.7305 695.185 56.0654C695.185 57.5171 695.936 58.1378 697.94 58.318C699.963 58.4982 700.764 59.169 700.945 60.8209C701.165 62.7832 701.776 63.0735 705.703 63.0735C709.72 63.0735 710.211 63.3238 710.201 65.3262C710.18 67.2684 710.882 67.6789 715.209 68.3297C719.316 68.9404 720.228 69.451 720.228 71.0829C720.228 72.5546 720.899 73.0852 722.732 73.0852C724.735 73.0852 725.236 73.5858 725.236 75.5881C725.236 77.8107 725.737 78.1511 729.744 78.5916C733.42 79.0021 734.251 79.4626 734.251 81.0945C734.251 82.5663 733.59 83.0969 731.747 83.0969C729.914 83.0969 729.243 82.5663 729.243 81.0945C729.243 79.4626 728.411 79.0021 724.735 78.5916C720.728 78.1511 720.228 77.8107 720.228 75.5881C720.228 73.5858 719.727 73.0852 717.723 73.0852C715.89 73.0852 715.219 72.5546 715.219 71.0829C715.219 69.4109 714.388 69.0004 710.211 68.5799C706.043 68.1595 705.202 67.749 705.202 66.077C705.202 64.6053 704.541 64.0747 702.698 64.0747C700.694 64.0747 700.193 63.5741 700.193 61.5718C700.193 59.2691 699.833 59.0689 695.686 59.0689Z" fill="#FA5D07" fill-opacity="0.51"/>
<path d="M737.757 88.1027C735.754 88.1027 735.253 87.6021 735.253 85.5998C735.253 83.5975 735.754 83.0969 737.757 83.0969C739.761 83.0969 740.262 83.5975 740.262 85.5998C740.262 87.6021 740.763 88.1027 742.766 88.1027C744.769 88.1027 745.27 88.6033 745.27 90.6056C745.27 92.608 744.769 93.1086 742.766 93.1086C740.763 93.1086 740.262 92.608 740.262 90.6056C740.262 88.6033 739.761 88.1027 737.757 88.1027Z" fill="#FA5D07" fill-opacity="0.51"/>
<path d="M751.781 98.1144C749.688 98.1144 749.297 97.6639 749.417 95.3612C749.528 93.0985 749.618 93.0084 749.918 94.8606C750.219 96.7127 751.08 97.2033 754.786 97.6138C758.793 98.0543 759.294 98.3947 759.294 100.617C759.294 102.62 759.795 103.12 761.798 103.12C763.642 103.12 764.303 103.651 764.303 105.123C764.303 106.594 764.974 107.125 766.807 107.125C768.81 107.125 769.311 107.625 769.311 109.628C769.311 111.63 769.812 112.131 771.815 112.131C773.819 112.131 774.32 112.631 774.32 114.634C774.32 116.636 774.821 117.137 776.824 117.137C778.827 117.137 779.328 117.637 779.328 119.639C779.328 121.642 779.829 122.142 781.833 122.142C783.836 122.142 784.337 122.643 784.337 124.645C784.337 126.648 784.838 127.148 786.841 127.148C788.845 127.148 789.345 127.649 789.345 129.651C789.345 131.653 789.846 132.154 791.85 132.154C793.853 132.154 794.354 132.655 794.354 134.657C794.354 136.659 794.855 137.16 796.858 137.16C798.862 137.16 799.362 137.66 799.362 139.663C799.362 141.495 799.903 142.166 801.366 142.166C802.701 142.166 803.453 142.917 803.62 144.418C803.787 145.92 804.621 146.754 806.124 146.921C807.797 147.112 808.378 147.822 808.378 149.674C808.378 151.677 808.879 152.177 810.882 152.177C812.885 152.177 813.386 152.678 813.386 154.68C813.386 156.512 813.927 157.183 815.39 157.183C816.792 157.183 817.473 157.934 817.644 159.666C817.844 161.638 817.433 162.149 815.64 162.169C813.897 162.189 813.386 161.618 813.386 159.686C813.386 157.684 812.885 157.183 810.882 157.183C808.879 157.183 808.378 156.683 808.378 154.68C808.378 152.828 807.797 152.117 806.124 151.927C804.621 151.76 803.787 150.926 803.62 149.424C803.453 147.922 802.618 147.088 801.115 146.921C799.463 146.741 798.801 145.94 798.611 143.918C798.431 141.915 797.82 141.165 796.357 141.165C795.022 141.165 794.354 140.497 794.354 139.162C794.354 137.691 793.693 137.16 791.85 137.16C789.626 137.16 789.295 136.659 788.845 132.655C788.434 128.9 787.973 128.109 786.09 127.899C784.587 127.732 783.753 126.898 783.586 125.396C783.419 123.894 782.584 123.06 781.081 122.893C779.579 122.726 778.744 121.892 778.577 120.39C778.367 118.518 777.575 118.058 773.819 117.637C769.812 117.197 769.311 116.856 769.311 114.634C769.311 112.631 768.81 112.131 766.807 112.131C764.974 112.131 764.303 111.6 764.303 110.128C764.303 108.657 763.642 108.126 761.798 108.126C759.795 108.126 759.294 107.625 759.294 105.623C759.294 103.621 758.793 103.12 756.79 103.12C754.787 103.12 754.286 102.62 754.286 100.617C754.286 98.615 753.785 98.1144 751.781 98.1144Z" fill="#FA5D07" fill-opacity="0.51"/>
<path d="M822.812 171.76C822.342 168.256 821.761 167.235 820.058 166.895C818.315 166.544 818.425 166.444 820.649 166.334C822.963 166.214 823.403 166.604 823.403 168.697C823.403 170.699 823.904 171.2 825.908 171.2C827.911 171.2 828.412 171.7 828.412 173.702C828.412 175.535 828.953 176.205 830.415 176.205C832.088 176.205 832.509 177.036 832.92 181.211C833.38 185.747 833.661 186.217 835.925 186.217C837.928 186.217 838.429 186.718 838.429 188.72C838.429 190.552 838.97 191.223 840.432 191.223C842.065 191.223 842.526 192.054 842.937 195.728C843.347 199.402 843.808 200.233 845.441 200.233C846.904 200.233 847.515 200.984 847.695 202.987C847.885 205.009 848.546 205.81 850.199 205.99C851.872 206.18 852.453 206.891 852.453 208.743C852.453 210.746 851.952 211.246 849.949 211.246C847.835 211.246 847.444 210.776 847.444 208.243C847.444 205.91 847.004 205.239 845.441 205.239C843.808 205.239 843.347 204.408 842.937 200.734C842.496 196.729 842.155 196.229 839.932 196.229C837.818 196.229 837.427 195.758 837.427 193.225C837.427 190.893 836.987 190.222 835.424 190.222C833.791 190.222 833.33 189.391 832.92 185.717C832.509 182.042 832.048 181.211 830.415 181.211C828.953 181.211 828.412 180.54 828.412 178.708C828.412 176.706 827.911 176.205 825.908 176.205C823.704 176.205 823.333 175.675 822.812 171.76Z" fill="#FA5D07" fill-opacity="0.51"/>
<path d="M854.957 220.257C852.954 220.257 852.453 219.756 852.453 217.754C852.453 215.752 852.954 215.251 854.957 215.251C856.961 215.251 857.461 215.752 857.461 217.754C857.461 219.756 856.961 220.257 854.957 220.257Z" fill="#FA5D07" fill-opacity="0.51"/>
<path d="M859.966 230.268C857.962 230.268 857.461 229.768 857.461 227.766C857.461 225.763 857.962 225.263 859.966 225.263C861.969 225.263 862.47 225.763 862.47 227.766C862.47 229.768 861.969 230.268 859.966 230.268Z" fill="#FA5D07" fill-opacity="0.51"/>
<path d="M864.974 240.28C862.971 240.28 862.47 239.78 862.47 237.777C862.47 235.775 862.971 235.274 864.974 235.274C866.978 235.274 867.479 235.775 867.479 237.777C867.479 239.78 866.978 240.28 864.974 240.28Z" fill="#FA5D07" fill-opacity="0.51"/>
<path d="M869.482 249.291C868.019 249.291 867.479 248.62 867.479 246.788C867.479 244.785 867.979 244.285 869.983 244.285C872.327 244.285 872.487 244.615 872.487 249.291C872.487 253.966 872.657 254.296 874.991 254.296C877.335 254.296 877.496 254.627 877.496 259.302C877.496 263.407 877.816 264.308 879.249 264.288C880.481 264.278 881.222 265.389 881.743 268.043C882.154 270.115 882.494 273.279 882.494 275.071C882.504 277.654 882.915 278.324 884.508 278.324C886.211 278.324 886.591 279.155 887.012 283.831C887.443 288.506 887.823 289.337 889.516 289.337C891.229 289.337 891.52 290.008 891.52 293.843C891.52 297.977 891.319 298.348 889.015 298.348C886.581 298.348 886.511 298.148 886.511 291.34C886.511 285.323 886.261 284.331 884.758 284.352C883.526 284.362 882.785 283.25 882.264 280.597C881.863 278.525 881.522 275.131 881.512 273.068C881.502 269.985 881.142 269.314 879.499 269.314C877.836 269.314 877.415 268.483 876.995 264.308C876.584 260.133 876.163 259.302 874.49 259.302C872.828 259.302 872.407 258.471 871.986 254.296C871.576 250.122 871.155 249.291 869.482 249.291Z" fill="#FA5D07" fill-opacity="0.51"/>
<path d="M894.024 313.365C891.72 313.365 891.51 312.975 891.349 308.5C891.189 303.814 891.279 303.654 893.683 304.115C895.867 304.525 896.218 305.156 896.358 308.98C896.518 313.035 896.338 313.365 894.024 313.365Z" fill="#FA5D07" fill-opacity="0.51"/>
<path d="M899.012 332.638C896.779 332.408 896.528 331.947 896.528 327.882C896.528 323.747 896.738 323.377 899.032 323.377C901.356 323.377 901.537 323.717 901.517 328.133C901.497 332.588 901.346 332.868 899.012 332.638Z" fill="#FA5D07" fill-opacity="0.51"/>
<path d="M904.041 357.417C901.607 357.417 901.537 357.216 901.537 350.409C901.537 343.601 901.607 343.4 904.041 343.4C906.475 343.4 906.545 343.601 906.545 350.409C906.545 357.216 906.475 357.417 904.041 357.417Z" fill="#FA5D07" fill-opacity="0.51"/>
<path d="M284.244 353.682C283.844 351.61 283.503 349.347 283.493 348.656C283.483 347.665 296.726 347.405 346.34 347.395C380.909 347.385 410.67 347.725 412.453 348.146C415.378 348.827 415.759 349.337 416.209 353.162C416.61 356.586 417.101 357.417 418.714 357.417C420.387 357.417 420.807 358.248 421.218 362.423C421.639 366.597 422.059 367.428 423.722 367.428C425.395 367.428 425.816 368.259 426.226 372.434C426.647 376.609 427.068 377.44 428.731 377.44C430.364 377.44 430.824 378.271 431.235 381.945C431.646 385.62 432.106 386.451 433.739 386.451C435.212 386.451 435.743 387.121 435.743 388.953C435.743 390.956 435.242 391.456 433.238 391.456C430.944 391.456 430.734 391.086 430.734 386.951C430.734 383.017 430.454 382.416 428.48 382.196C426.537 381.975 426.196 381.295 425.976 377.19C425.766 373.085 425.415 372.404 423.472 372.184C421.528 371.964 421.188 371.283 420.967 367.178C420.757 363.173 420.407 362.423 418.714 362.423C417.081 362.423 416.62 361.592 416.209 357.917C415.799 354.243 415.338 353.412 413.705 353.412C412.243 353.412 411.702 352.741 411.702 348.406H348.093C285.156 348.406 284.485 348.426 284.485 350.409C284.485 351.88 285.156 352.411 286.989 352.411C289.333 352.411 289.493 352.741 289.493 357.417C289.493 362.092 289.664 362.423 291.998 362.423C294.302 362.423 294.502 362.793 294.502 366.928C294.502 370.862 294.792 371.463 296.756 371.683C298.419 371.864 299.08 372.664 299.26 374.687C299.44 376.689 300.061 377.44 301.514 377.44C303.187 377.44 303.607 378.271 304.018 382.446C304.439 386.621 304.86 387.452 306.522 387.452C307.995 387.452 308.526 388.122 308.526 389.955C308.526 391.957 308.075 392.407 306.272 392.207C304.329 391.987 303.988 391.306 303.768 387.201C303.537 382.866 303.297 382.446 301.013 382.446C298.899 382.446 298.509 381.975 298.509 379.442C298.509 377.11 298.068 376.439 296.505 376.439C294.873 376.439 294.412 375.608 294.001 371.934C293.59 368.259 293.13 367.428 291.497 367.428C289.834 367.428 289.413 366.597 288.993 362.423C288.602 358.508 288.111 357.417 286.739 357.437C285.507 357.447 284.765 356.335 284.244 353.682Z" fill="#FA5D07" fill-opacity="0.51"/>
<path d="M754.286 350.409C754.286 348.426 753.534 348.406 690.427 348.146L626.568 347.886L690.427 347.645C732.248 347.485 754.456 347.755 754.786 348.406C755.067 348.957 754.947 351.219 754.536 353.432C753.925 356.726 753.374 357.447 751.531 357.437C749.788 357.417 749.277 357.987 749.277 359.92C749.277 361.922 748.776 362.423 746.773 362.423C744.769 362.423 744.269 362.923 744.269 364.925C744.269 366.758 743.738 367.428 742.265 367.428C740.93 367.428 740.178 368.179 740.011 369.681C739.844 371.183 739.01 372.017 737.507 372.184C735.844 372.374 735.253 373.085 735.253 374.937C735.253 376.939 734.752 377.44 732.749 377.44C730.745 377.44 730.245 377.941 730.245 379.943C730.245 382.035 729.804 382.426 727.49 382.306C725.226 382.196 725.136 382.105 726.989 381.805C728.452 381.575 729.333 380.654 729.493 379.192C729.66 377.69 730.495 376.856 731.998 376.689C733.5 376.522 734.335 375.688 734.502 374.186C734.669 372.684 735.504 371.85 737.006 371.683C738.889 371.473 739.35 370.682 739.761 366.928C740.172 363.253 740.632 362.423 742.265 362.423C743.738 362.423 744.269 361.752 744.269 359.92C744.269 357.917 744.769 357.417 746.773 357.417C748.776 357.417 749.277 356.916 749.277 354.914C749.277 352.911 749.778 352.411 751.781 352.411C753.625 352.411 754.286 351.88 754.286 350.409Z" fill="#FA5D07" fill-opacity="0.51"/>
<path d="M619.556 357.417C621.559 357.417 622.06 356.916 622.06 354.914C622.06 352.911 622.561 352.411 624.565 352.411C626.568 352.411 627.069 352.911 627.069 354.914C627.069 356.916 626.568 357.417 624.565 357.417C622.561 357.417 622.06 357.917 622.06 359.92C622.06 361.922 621.559 362.423 619.556 362.423C617.553 362.423 617.052 362.923 617.052 364.925C617.052 366.768 616.521 367.428 615.048 367.428C613.586 367.428 613.045 368.099 613.045 369.931C613.045 371.934 612.544 372.434 610.541 372.434C608.607 372.434 607.986 373.005 607.786 374.937C607.576 377.07 607.536 377.03 607.536 374.687C607.536 372.574 608.056 371.874 609.789 371.683C611.673 371.473 612.133 370.682 612.544 366.928C612.955 363.263 613.415 362.423 615.048 362.423C616.521 362.423 617.052 361.762 617.052 359.92C617.052 357.917 617.553 357.417 619.556 357.417Z" fill="#FA5D07" fill-opacity="0.51"/>
<path d="M908.549 391.456C906.685 391.456 906.545 390.796 906.545 381.945C906.545 372.474 906.555 372.434 911.554 372.434L911.373 387.201C911.273 395.321 911.043 399.606 910.873 396.712C910.602 392.227 910.261 391.456 908.549 391.456Z" fill="#FA5D07" fill-opacity="0.51"/>
<path d="M597.779 384.759C597.949 383.397 598.891 382.406 600.283 382.146C601.525 381.915 602.557 381.655 602.587 381.585C602.617 381.505 602.507 382.576 602.337 383.948C602.126 385.68 601.415 386.451 600.023 386.451C598.57 386.451 597.949 387.201 597.769 389.204C597.589 391.226 596.927 392.027 595.265 392.207C593.762 392.374 592.927 393.208 592.76 394.71C592.593 396.212 591.759 397.046 590.256 397.213C588.453 397.413 588.002 396.963 588.002 394.96C588.002 393.108 588.593 392.397 590.256 392.207C591.759 392.04 592.593 391.206 592.76 389.704C592.927 388.203 593.762 387.368 595.265 387.201C596.737 387.041 597.609 386.2 597.779 384.759Z" fill="#FA5D07" fill-opacity="0.51"/>
<path d="M717.723 391.456C719.727 391.456 720.228 390.956 720.228 388.953C720.228 386.951 720.728 386.451 722.732 386.451C724.735 386.451 725.236 386.951 725.236 388.953C725.236 390.956 724.735 391.456 722.732 391.456C720.728 391.456 720.228 391.957 720.228 393.959C720.228 395.962 719.727 396.462 717.723 396.462C715.72 396.462 715.219 395.962 715.219 393.959C715.219 391.957 715.72 391.456 717.723 391.456Z" fill="#FA5D07" fill-opacity="0.51"/>
<path d="M436.484 398.244C436.063 396.442 435.783 394.29 435.873 393.459C435.953 392.638 436.183 392.968 436.384 394.21C436.614 395.671 437.446 396.462 438.748 396.462C440.22 396.462 440.751 397.133 440.751 398.965C440.751 400.967 441.252 401.468 443.255 401.468C445.259 401.468 445.76 401.969 445.76 403.971C445.76 405.973 445.259 406.474 443.255 406.474C441.252 406.474 440.751 405.973 440.751 403.971C440.751 402.249 440.21 401.478 438.998 401.498C437.83 401.505 436.991 400.42 436.484 398.244Z" fill="#FA5D07" fill-opacity="0.51"/>
<path d="M311.03 401.468C309.027 401.468 308.526 400.967 308.526 398.965C308.526 396.963 309.027 396.462 311.03 396.462C313.034 396.462 313.534 396.963 313.534 398.965C313.534 400.967 313.034 401.468 311.03 401.468Z" fill="#FA5D07" fill-opacity="0.51"/>
<path d="M712.715 401.468C710.882 401.468 710.211 400.937 710.211 399.466C710.211 398.004 710.882 397.463 712.715 397.463C714.558 397.463 715.219 398.004 715.219 399.466C715.219 400.937 714.558 401.468 712.715 401.468Z" fill="#FA5D07" fill-opacity="0.51"/>
<path d="M316.039 411.48C314.035 411.48 313.534 410.979 313.534 408.977C313.534 406.974 314.035 406.474 316.039 406.474C318.042 406.474 318.543 406.974 318.543 408.977C318.543 410.979 318.042 411.48 316.039 411.48Z" fill="#FA5D07" fill-opacity="0.51"/>
<path d="M575.481 411.48C577.484 411.48 577.985 410.979 577.985 408.977C577.985 406.974 578.486 406.474 580.489 406.474C582.493 406.474 582.994 406.974 582.994 408.977C582.994 410.979 582.493 411.48 580.489 411.48C578.486 411.48 577.985 411.98 577.985 413.983C577.985 415.985 577.484 416.486 575.481 416.486C573.477 416.486 572.977 416.986 572.977 418.988C572.977 420.831 572.446 421.491 570.973 421.491C569.511 421.491 568.97 422.162 568.97 423.994C568.97 425.997 568.469 426.497 566.466 426.497C564.462 426.497 563.961 426.998 563.961 429C563.961 431.103 563.521 431.483 561.207 431.373C558.943 431.253 558.853 431.173 560.706 430.872C562.168 430.632 563.05 429.711 563.21 428.249C563.377 426.748 564.212 425.913 565.714 425.746C567.597 425.536 568.058 424.745 568.469 420.991C568.88 417.327 569.34 416.486 570.973 416.486C572.446 416.486 572.977 415.825 572.977 413.983C572.977 411.98 573.477 411.48 575.481 411.48Z" fill="#FA5D07" fill-opacity="0.51"/>
<path d="M448.264 416.486C446.261 416.486 445.76 415.985 445.76 413.983C445.76 411.98 446.261 411.48 448.264 411.48C450.267 411.48 450.768 411.98 450.768 413.983C450.768 415.985 450.267 416.486 448.264 416.486Z" fill="#FA5D07" fill-opacity="0.51"/>
<path d="M697.689 416.486C699.763 416.486 700.193 416.015 700.163 413.732C700.153 412.221 700.404 411.279 700.714 411.64C701.035 412 701.045 414.373 700.744 416.896C700.254 420.991 699.923 421.491 697.689 421.491C695.686 421.491 695.185 421.992 695.185 423.994C695.185 425.836 694.654 426.497 693.181 426.497C691.846 426.497 691.095 427.248 690.928 428.75C690.761 430.252 689.926 431.086 688.423 431.253C686.921 431.42 686.086 432.254 685.919 433.756C685.752 435.257 684.917 436.092 683.415 436.259C681.912 436.425 681.078 437.26 680.911 438.762C680.73 440.383 679.949 441.064 678.156 441.184C676.072 441.315 676.032 441.274 677.905 440.934C679.348 440.664 680.249 439.703 680.41 438.261C680.577 436.759 681.411 435.925 682.914 435.758C684.797 435.548 685.258 434.757 685.669 431.002C686.089 427.248 686.55 426.457 688.423 426.247C689.926 426.08 690.761 425.246 690.928 423.744C691.095 422.242 691.846 421.491 693.182 421.491C694.654 421.491 695.185 420.831 695.185 418.988C695.185 416.986 695.686 416.486 697.689 416.486Z" fill="#FA5D07" fill-opacity="0.51"/>
<path d="M322.89 421.551C322.369 417.647 321.788 416.506 320.136 416.135C318.543 415.775 318.643 415.695 320.546 415.825C322.5 415.955 323.111 416.596 323.301 418.738C323.501 420.941 324.052 421.491 326.056 421.491C328.36 421.491 328.56 421.862 328.56 425.997C328.56 429.931 328.85 430.532 330.814 430.752C332.757 430.972 333.108 431.653 333.318 435.758C333.548 440.103 333.789 440.514 336.073 440.514C338.417 440.514 338.577 440.854 338.577 445.519C338.577 450.195 338.747 450.525 341.081 450.525C343.085 450.525 343.586 451.026 343.586 453.028C343.586 454.87 344.127 455.531 345.589 455.531C347.262 455.531 347.683 456.372 348.093 460.537C348.514 464.712 348.935 465.543 350.598 465.543C352.07 465.543 352.601 466.214 352.601 468.046C352.601 470.048 352.15 470.499 350.347 470.298C348.404 470.088 348.063 469.397 347.843 465.292C347.613 460.957 347.372 460.537 345.088 460.537C343.085 460.537 342.584 460.036 342.584 458.034C342.584 456.202 342.053 455.531 340.581 455.531C338.918 455.531 338.497 454.7 338.076 450.525C337.666 446.36 337.245 445.519 335.572 445.519C333.909 445.519 333.488 444.688 333.068 440.514C332.657 436.349 332.236 435.508 330.563 435.508C328.931 435.508 328.47 434.677 328.059 431.002C327.648 427.338 327.188 426.497 325.555 426.497C323.912 426.497 323.431 425.616 322.89 421.551Z" fill="#FA5D07" fill-opacity="0.51"/>
<path d="M453.273 426.497C451.269 426.497 450.768 425.997 450.768 423.994C450.768 421.992 451.269 421.491 453.273 421.491C455.276 421.491 455.777 421.992 455.777 423.994C455.777 425.997 455.276 426.497 453.273 426.497Z" fill="#FA5D07" fill-opacity="0.51"/>
<path d="M457.78 435.508C456.278 435.508 455.797 434.867 455.857 432.935C455.927 430.882 456.378 430.432 458.111 430.682C459.954 430.952 460.325 431.743 460.535 435.758C460.755 439.863 461.096 440.554 463.039 440.764C464.983 440.984 465.333 441.665 465.543 445.77C465.754 449.774 466.114 450.525 467.797 450.525C469.43 450.525 469.891 451.366 470.302 455.03C470.712 458.745 471.203 459.606 473.056 459.906C474.909 460.207 474.829 460.287 472.555 460.407C470.251 460.517 469.801 460.136 469.801 458.034C469.801 456.202 469.27 455.531 467.797 455.531C466.134 455.531 465.714 454.7 465.293 450.525C464.882 446.36 464.462 445.519 462.789 445.519C461.126 445.519 460.705 444.688 460.285 440.514C459.874 436.349 459.453 435.508 457.78 435.508Z" fill="#FA5D07" fill-opacity="0.51"/>
<path d="M555.948 435.508C557.049 435.508 557.941 434.947 557.921 434.256C557.911 433.565 558.111 433.275 558.362 433.595C558.622 433.926 558.522 435.628 558.141 437.38C557.681 439.502 556.866 440.557 555.697 440.544C554.495 440.524 553.944 441.294 553.944 443.016C553.944 445.019 553.443 445.519 551.44 445.519C549.436 445.519 548.936 446.02 548.936 448.022C548.936 450.025 548.435 450.525 546.431 450.525C544.598 450.525 543.927 449.995 543.927 448.523C543.927 447.188 544.678 446.437 546.181 446.27C547.844 446.09 548.505 445.289 548.685 443.267C548.886 441.064 549.436 440.514 551.44 440.514C553.443 440.514 553.944 440.013 553.944 438.011C553.944 436.178 554.485 435.508 555.948 435.508Z" fill="#FA5D07" fill-opacity="0.51"/>
<path d="M663.631 455.531C665.635 455.531 666.135 455.03 666.135 453.028C666.135 451.026 666.636 450.525 668.64 450.525C670.643 450.525 671.144 451.026 671.144 453.028C671.144 455.03 670.643 455.531 668.64 455.531C666.636 455.531 666.135 456.032 666.135 458.034C666.135 460.036 665.635 460.537 663.631 460.537C661.628 460.537 661.127 461.037 661.127 463.04C661.127 464.972 660.616 465.543 658.873 465.523C657.08 465.513 656.669 465.002 656.87 463.02C657.05 461.288 657.731 460.537 659.123 460.537C660.596 460.537 661.127 459.876 661.127 458.034C661.127 456.032 661.628 455.531 663.631 455.531Z" fill="#FA5D07" fill-opacity="0.51"/>
<path d="M531.406 465.543C533.409 465.543 533.91 465.042 533.91 463.04C533.91 461.037 534.411 460.537 536.414 460.537C538.257 460.537 538.919 461.078 538.919 462.539C538.919 463.874 538.167 464.625 536.665 464.792C535.012 464.982 534.351 465.773 534.16 467.795C533.96 469.998 533.409 470.549 531.406 470.549C529.402 470.549 528.901 471.049 528.901 473.051C528.901 474.894 528.371 475.554 526.898 475.554C525.562 475.554 524.811 476.305 524.644 477.807C524.477 479.309 523.643 480.143 522.14 480.31C520.477 480.5 519.886 481.211 519.886 483.063C519.886 485.065 519.385 485.566 517.382 485.566C515.158 485.566 514.827 486.067 514.377 490.071C513.966 493.746 513.505 494.577 511.872 494.577C510.41 494.577 509.869 495.247 509.869 497.079C509.869 499.082 509.368 499.582 507.365 499.582C505.361 499.582 504.86 500.083 504.86 502.085C504.86 504.088 504.36 504.588 502.356 504.588C500.353 504.588 499.852 504.088 499.852 502.085C499.852 500.083 500.353 499.582 502.356 499.582C504.36 499.582 504.861 499.082 504.861 497.079C504.861 495.077 505.361 494.577 507.365 494.577C509.368 494.577 509.869 494.076 509.869 492.074C509.869 490.242 510.41 489.571 511.872 489.571C513.208 489.571 513.959 488.82 514.126 487.318C514.293 485.816 515.128 484.982 516.631 484.815C518.303 484.635 518.884 483.914 518.884 482.062C518.884 480.06 519.385 479.559 521.389 479.559C523.612 479.559 523.953 479.059 524.394 475.054C524.805 471.39 525.265 470.549 526.898 470.549C528.371 470.549 528.901 469.888 528.901 468.046C528.901 466.043 529.402 465.543 531.406 465.543Z" fill="#FA5D07" fill-opacity="0.51"/>
<path d="M477.314 470.549C475.27 470.549 474.779 470.028 474.639 467.685C474.489 465.142 474.749 464.872 476.973 465.302C478.746 465.643 479.527 466.484 479.647 468.166C479.788 470.088 479.337 470.549 477.314 470.549Z" fill="#FA5D07" fill-opacity="0.51"/>
<path d="M651.11 472.05C651.11 470.078 651.691 469.477 653.865 469.197C655.377 469.007 656.719 468.776 656.84 468.696C656.95 468.616 656.84 468.997 656.589 469.547C656.329 470.098 655.217 470.549 654.115 470.549C652.779 470.549 652.028 471.299 651.861 472.801C651.694 474.303 650.859 475.137 649.357 475.304C647.484 475.514 647.023 476.305 646.602 480.06C646.191 483.734 645.731 484.565 644.098 484.565C642.635 484.565 642.094 485.236 642.094 487.068C642.094 489.07 641.594 489.571 639.59 489.571C637.587 489.571 637.086 490.071 637.086 492.074C637.086 494.076 636.585 494.577 634.582 494.577C632.508 494.577 632.087 495.057 632.107 497.33C632.127 498.842 631.877 499.863 631.566 499.582C631.256 499.312 631.246 496.939 631.546 494.326C632.027 490.071 632.338 489.571 634.582 489.571C636.585 489.571 637.086 489.07 637.086 487.068C637.086 485.065 637.587 484.565 639.59 484.565C641.594 484.565 642.094 484.064 642.094 482.062C642.094 480.23 642.635 479.559 644.098 479.559C645.433 479.559 646.185 478.808 646.352 477.306C646.519 475.805 647.353 474.97 648.856 474.804C650.529 474.623 651.11 473.902 651.11 472.05Z" fill="#FA5D07" fill-opacity="0.51"/>
<path d="M355.105 479.559C353.102 479.559 352.601 479.059 352.601 477.056C352.601 475.054 353.102 474.553 355.105 474.553C357.109 474.553 357.609 475.054 357.609 477.056C357.609 479.059 357.109 479.559 355.105 479.559Z" fill="#FA5D07" fill-opacity="0.51"/>
<path d="M482.573 480.31C480.99 480.14 480.239 479.319 480.048 477.557C479.818 475.434 480.138 475.114 482.132 475.424C483.785 475.685 484.536 476.506 484.656 478.177C484.796 480.1 484.386 480.51 482.573 480.31Z" fill="#FA5D07" fill-opacity="0.51"/>
<path d="M360.114 489.571C358.11 489.571 357.609 489.07 357.609 487.068C357.609 485.065 358.11 484.565 360.114 484.565C362.117 484.565 362.618 485.065 362.618 487.068C362.618 489.07 362.117 489.571 360.114 489.571Z" fill="#FA5D07" fill-opacity="0.51"/>
<path d="M487.331 489.571C485.327 489.571 484.826 489.07 484.826 487.068C484.826 485.065 485.327 484.565 487.331 484.565C489.334 484.565 489.835 485.065 489.835 487.068C489.835 489.07 489.334 489.571 487.331 489.571Z" fill="#FA5D07" fill-opacity="0.51"/>
<path d="M367.386 500.854C366.986 498.781 366.715 496.409 366.785 495.578C366.865 494.757 367.086 495.317 367.276 496.829C367.556 499.012 368.158 499.582 370.131 499.582C372.134 499.582 372.635 500.083 372.635 502.085C372.635 504.008 372.114 504.598 370.381 504.608C368.568 504.628 367.987 503.887 367.386 500.854Z" fill="#FA5D07" fill-opacity="0.51"/>
<path d="M492.339 499.582C490.336 499.582 489.835 499.082 489.835 497.079C489.835 495.077 490.336 494.577 492.339 494.577C494.343 494.577 494.843 495.077 494.843 497.079C494.843 499.082 494.343 499.582 492.339 499.582Z" fill="#FA5D07" fill-opacity="0.51"/>
<path d="M616.891 511.767C616.791 510.755 617.092 509.634 617.553 509.264C618.013 508.893 619.326 508.653 620.478 508.733C622.391 508.853 622.371 508.903 620.307 509.234C618.454 509.534 617.963 510.395 617.553 514.099C617.142 517.854 616.681 518.645 614.798 518.855C613.295 519.022 612.461 519.856 612.294 521.358C612.127 522.86 611.375 523.61 610.04 523.61C608.577 523.61 608.036 524.281 608.036 526.113C608.036 528.116 607.536 528.616 605.532 528.616C603.459 528.616 603.038 529.097 603.058 531.37C603.078 532.881 602.817 533.902 602.497 533.622C602.176 533.352 602.166 531.209 602.467 528.867C602.918 525.473 603.429 524.612 605.031 524.612C606.504 524.612 607.035 523.951 607.035 522.109C607.035 520.106 607.536 519.606 609.539 519.606C611.542 519.606 612.093 519.055 612.294 516.853C612.484 514.83 613.145 514.039 614.798 513.849C616.3 513.682 616.998 512.988 616.891 511.767Z" fill="#FA5D07" fill-opacity="0.51"/>
<path d="M374.639 514.6C373.176 514.6 372.635 513.939 372.635 512.097C372.635 510.095 373.136 509.594 375.139 509.594C377.443 509.594 377.644 509.965 377.644 514.099C377.644 518.034 377.934 518.635 379.897 518.855C381.841 519.075 382.191 519.756 382.402 523.861C382.632 528.206 382.873 528.616 385.156 528.616C387.16 528.616 387.661 529.117 387.661 531.119C387.661 532.961 388.202 533.622 389.664 533.622C391.337 533.622 391.758 534.463 392.168 538.628C392.589 542.803 393.01 543.634 394.673 543.634C396.145 543.634 396.676 544.305 396.676 546.137C396.676 548.139 396.175 548.64 394.172 548.64C391.838 548.64 391.668 548.309 391.668 543.634C391.668 538.968 391.507 538.628 389.163 538.628C386.869 538.628 386.659 538.268 386.659 534.123C386.659 530.198 386.379 529.587 384.405 529.367C382.752 529.187 382.091 528.386 381.901 526.364C381.721 524.361 381.11 523.61 379.647 523.61C378.014 523.61 377.554 522.779 377.143 519.105C376.732 515.441 376.271 514.6 374.639 514.6Z" fill="#FA5D07" fill-opacity="0.51"/>
<path d="M594.513 538.628C596.547 538.628 597.038 538.117 597.138 535.875C597.218 533.842 597.368 533.652 597.709 535.124C597.959 536.225 597.899 537.687 597.589 538.378C597.278 539.068 596.116 539.629 595.014 539.629C593.381 539.629 592.921 540.47 592.51 544.134C592.099 547.809 591.638 548.64 590.006 548.64C588.543 548.64 588.002 549.31 588.002 551.143C588.002 553.145 587.501 553.645 585.498 553.645C583.495 553.645 582.994 554.146 582.994 556.148C582.994 558.151 582.493 558.651 580.489 558.651C578.486 558.651 577.985 558.151 577.985 556.148C577.985 554.146 578.486 553.645 580.489 553.645C582.493 553.645 582.994 553.145 582.994 551.143C582.994 549.14 583.495 548.64 585.498 548.64C587.501 548.64 588.002 548.139 588.002 546.137C588.002 544.305 588.543 543.634 590.006 543.634C591.478 543.634 592.009 542.973 592.009 541.131C592.009 539.129 592.51 538.628 594.513 538.628Z" fill="#FA5D07" fill-opacity="0.51"/>
<path d="M399.18 558.651C397.137 558.651 396.646 558.131 396.506 555.788C396.356 553.245 396.616 552.975 398.84 553.405C400.613 553.746 401.394 554.587 401.514 556.268C401.655 558.191 401.204 558.651 399.18 558.651Z" fill="#FA5D07" fill-opacity="0.51"/>
<path d="M404.189 567.662C402.185 567.662 401.685 567.161 401.685 565.159C401.685 563.157 402.185 562.656 404.189 562.656C406.192 562.656 406.693 563.157 406.693 565.159C406.693 567.161 406.192 567.662 404.189 567.662Z" fill="#FA5D07" fill-opacity="0.51"/>
<path d="M908.549 568.663C910.101 568.663 910.602 567.932 910.752 565.409C910.863 563.617 911.123 565.539 911.323 569.664C911.524 573.799 911.433 579.536 911.123 582.429C910.642 586.834 910.231 587.685 908.549 587.685C906.685 587.685 906.545 587.024 906.545 578.174C906.545 569.334 906.685 568.663 908.549 568.663Z" fill="#FA5D07" fill-opacity="0.51"/>
<path d="M565.464 572.668C567.467 572.668 567.968 572.167 567.968 570.165C567.968 568.072 568.419 567.682 570.723 567.802C572.997 567.912 573.077 568.002 571.224 568.303C569.771 568.533 568.88 569.464 568.719 570.916C568.552 572.417 567.718 573.252 566.215 573.419C564.442 573.619 563.841 574.47 563.41 577.423C563.1 579.486 563.04 583.66 563.28 586.684C563.521 589.718 563.54 591.179 563.34 589.938C563.11 588.596 562.258 587.695 561.207 587.705C559.954 587.715 559.243 586.594 558.702 583.701C558.292 581.488 558.181 579.225 558.452 578.675C558.732 578.124 559.854 577.673 560.956 577.673C562.429 577.673 562.96 577.013 562.96 575.171C562.96 573.168 563.46 572.668 565.464 572.668Z" fill="#FA5D07" fill-opacity="0.51"/>
<path d="M409.197 573.669C407.194 573.669 406.693 573.168 406.693 571.166C406.693 569.164 407.194 568.663 409.197 568.663C411.201 568.663 411.702 569.164 411.702 571.166C411.702 573.168 411.201 573.669 409.197 573.669Z" fill="#FA5D07" fill-opacity="0.51"/>
<path d="M414.206 582.679C412.162 582.679 411.722 582.209 411.782 580.106C411.852 578.054 412.303 577.603 414.036 577.854C415.428 578.064 416.3 578.985 416.46 580.427C416.66 582.229 416.209 582.679 414.206 582.679Z" fill="#FA5D07" fill-opacity="0.51"/>
<path d="M570.472 602.703C568.429 602.703 567.938 602.182 567.798 599.839C567.648 597.296 567.908 597.026 570.132 597.457C571.905 597.797 572.686 598.638 572.806 600.32C572.947 602.242 572.496 602.703 570.472 602.703Z" fill="#FA5D07" fill-opacity="0.51"/>
<path d="M394.172 602.703C396.175 602.703 396.676 602.202 396.676 600.2C396.676 598.197 397.177 597.697 399.18 597.697C401.184 597.697 401.685 598.197 401.685 600.2C401.685 602.202 401.184 602.703 399.18 602.703C397.177 602.703 396.676 603.203 396.676 605.206C396.676 607.208 396.175 607.708 394.172 607.708C392.168 607.708 391.668 608.209 391.668 610.211C391.668 612.054 391.137 612.714 389.664 612.714C388.329 612.714 387.577 613.465 387.41 614.967C387.243 616.469 386.409 617.303 384.906 617.47C383.403 617.637 382.569 618.471 382.402 619.973C382.235 621.475 381.4 622.309 379.897 622.476C378.024 622.686 377.564 623.477 377.143 627.231C376.732 630.906 376.271 631.737 374.639 631.737C373.176 631.737 372.635 632.407 372.635 634.239C372.635 636.242 372.134 636.742 370.131 636.742C368.127 636.742 367.627 637.243 367.627 639.245C367.627 641.248 367.126 641.748 365.122 641.748C363.119 641.748 362.618 642.249 362.618 644.251C362.618 646.253 362.117 646.754 360.114 646.754C358.11 646.754 357.609 646.253 357.609 644.251C357.609 642.249 358.11 641.748 360.114 641.748C362.117 641.748 362.618 641.248 362.618 639.245C362.618 637.243 363.119 636.742 365.122 636.742C367.126 636.742 367.627 636.242 367.627 634.239C367.627 632.237 368.127 631.737 370.131 631.737C372.134 631.737 372.635 631.236 372.635 629.234C372.635 627.401 373.176 626.731 374.639 626.731C375.974 626.731 376.725 625.98 376.892 624.478C377.059 622.976 377.894 622.142 379.397 621.975C381.07 621.795 381.651 621.074 381.651 619.222C381.651 617.22 382.151 616.719 384.155 616.719C386.379 616.719 386.719 616.218 387.16 612.214C387.571 608.549 388.031 607.708 389.664 607.708C391.137 607.708 391.668 607.048 391.668 605.206C391.668 603.203 392.168 602.703 394.172 602.703Z" fill="#FA5D07" fill-opacity="0.51"/>
<path d="M904.041 607.708C901.707 607.708 901.537 607.378 901.537 602.703C901.537 598.037 901.707 597.697 904.041 597.697C906.385 597.697 906.545 598.037 906.545 602.703C906.545 607.378 906.385 607.708 904.041 607.708Z" fill="#FA5D07" fill-opacity="0.51"/>
<path d="M575.731 612.464C574.149 612.294 573.397 611.473 573.207 609.711C572.977 607.588 573.297 607.268 575.291 607.578C576.943 607.839 577.695 608.66 577.815 610.332C577.955 612.254 577.544 612.664 575.731 612.464Z" fill="#FA5D07" fill-opacity="0.51"/>
<path d="M580.489 621.725C578.486 621.725 577.985 621.224 577.985 619.222C577.985 617.22 578.486 616.719 580.489 616.719C582.493 616.719 582.994 617.22 582.994 619.222C582.994 621.224 582.493 621.725 580.489 621.725Z" fill="#FA5D07" fill-opacity="0.51"/>
<path d="M899.032 622.726C896.919 622.726 896.528 622.265 896.528 619.722C896.528 617.19 896.919 616.719 899.032 616.719C901.146 616.719 901.537 617.19 901.537 619.722C901.537 622.265 901.146 622.726 899.032 622.726Z" fill="#FA5D07" fill-opacity="0.51"/>
<path d="M587.411 632.307C586.94 628.793 586.359 627.772 584.656 627.431C582.914 627.091 583.024 626.981 585.248 626.871C587.561 626.751 588.002 627.141 588.002 629.234C588.002 631.086 588.593 631.807 590.256 631.987C592.199 632.207 592.55 632.888 592.76 636.993C592.991 641.338 593.231 641.748 595.515 641.748C597.819 641.748 598.019 642.119 598.019 646.253C598.019 650.188 598.31 650.789 600.273 651.009C602.216 651.229 602.567 651.91 602.777 656.015C602.998 660.12 603.338 660.81 605.282 661.021C606.945 661.211 607.606 662.002 607.786 664.024C607.966 666.026 608.587 666.777 610.04 666.777C611.673 666.777 612.133 667.618 612.544 671.283C612.955 674.957 613.415 675.788 615.048 675.788C616.721 675.788 617.142 676.629 617.553 680.794C617.973 684.969 618.394 685.799 620.057 685.799C621.529 685.799 622.06 686.47 622.06 688.302C622.06 690.305 622.561 690.805 624.565 690.805C626.568 690.805 627.069 691.306 627.069 693.308C627.069 695.311 626.568 695.811 624.565 695.811C622.561 695.811 622.06 695.311 622.06 693.308C622.06 691.456 621.479 690.745 619.806 690.555C617.863 690.345 617.523 689.654 617.302 685.549C617.072 681.214 616.831 680.794 614.547 680.794C612.254 680.794 612.043 680.433 612.043 676.288C612.043 672.364 611.763 671.753 609.789 671.533C607.846 671.323 607.505 670.632 607.285 666.527C607.075 662.422 606.724 661.741 604.781 661.521C603.128 661.341 602.467 660.54 602.277 658.518C602.096 656.515 601.485 655.765 600.023 655.765C598.39 655.765 597.929 654.934 597.518 651.259C597.108 647.595 596.647 646.754 595.014 646.754C593.351 646.754 592.931 645.923 592.51 641.748C592.099 637.583 591.678 636.742 590.006 636.742C588.393 636.742 587.892 635.881 587.411 632.307Z" fill="#FA5D07" fill-opacity="0.51"/>
<path d="M892.171 639.496C891.98 641.007 891.75 639.886 891.67 636.993C891.53 632.017 891.65 631.737 894.024 631.737C896.027 631.737 896.528 632.237 896.528 634.239C896.528 636.082 895.997 636.742 894.525 636.742C893.092 636.742 892.421 637.533 892.171 639.496Z" fill="#FA5D07" fill-opacity="0.51"/>
<path d="M886.351 651.429C886.251 649.047 886.551 646.794 887.012 646.424C887.473 646.053 888.675 645.753 889.686 645.753C890.979 645.753 891.52 646.494 891.52 648.256C891.52 650.098 890.989 650.759 889.516 650.759C887.853 650.759 887.433 651.6 887.012 655.765C886.621 659.689 886.13 660.77 884.758 660.76C883.416 660.75 882.835 661.922 882.254 665.766C881.643 669.871 881.142 670.782 879.499 670.782C877.836 670.782 877.416 671.623 876.995 675.788C876.584 679.963 876.163 680.794 874.491 680.794C873.028 680.794 872.487 681.464 872.487 683.297C872.487 685.299 871.986 685.799 869.983 685.799C867.979 685.799 867.479 685.299 867.479 683.297C867.479 681.294 867.979 680.794 869.983 680.794C871.986 680.794 872.487 680.293 872.487 678.291C872.487 676.459 873.028 675.788 874.49 675.788C876.163 675.788 876.584 674.957 876.995 670.782C877.415 666.617 877.836 665.776 879.499 665.776C881.192 665.776 881.543 665.025 881.753 661.021C881.973 656.916 882.314 656.235 884.257 656.015C886.241 655.795 886.491 655.244 886.351 651.429Z" fill="#FA5D07" fill-opacity="0.51"/>
<path d="M345.339 661.021C347.011 660.84 347.592 660.12 347.592 658.267C347.592 656.175 348.043 655.785 350.347 655.905C352.621 656.015 352.701 656.105 350.848 656.405C348.995 656.706 348.504 657.567 348.093 661.271C347.683 665.025 347.222 665.816 345.339 666.026C343.836 666.193 343.001 667.028 342.834 668.529C342.667 670.031 341.916 670.782 340.58 670.782C339.118 670.782 338.577 671.453 338.577 673.285C338.577 675.287 338.076 675.788 336.073 675.788C334.069 675.788 333.569 676.288 333.569 678.291C333.569 680.293 333.068 680.794 331.064 680.794C329.061 680.794 328.56 681.294 328.56 683.297C328.56 685.299 328.059 685.799 326.056 685.799C324.052 685.799 323.551 686.3 323.551 688.302C323.551 690.405 323.111 690.785 320.797 690.675C318.533 690.555 318.443 690.475 320.296 690.175C321.758 689.934 322.64 689.013 322.8 687.552C322.967 686.05 323.802 685.216 325.304 685.049C327.188 684.838 327.648 684.047 328.059 680.293C328.51 676.288 328.84 675.788 331.064 675.788C333.068 675.788 333.569 675.287 333.569 673.285C333.569 671.453 334.109 670.782 335.572 670.782C336.908 670.782 337.659 670.031 337.826 668.529C337.993 667.028 338.828 666.193 340.33 666.026C341.833 665.86 342.667 665.025 342.834 663.524C343.001 662.022 343.836 661.187 345.339 661.021Z" fill="#FA5D07" fill-opacity="0.51"/>
<path d="M467.547 661.021C469.22 660.84 469.821 660.11 469.861 658.217C469.911 655.775 470.141 655.674 475.12 655.965C477.797 656.119 479.108 656.249 479.785 656.766H479.818C479.818 656.775 479.819 656.784 479.819 656.793C480.341 657.215 480.468 657.888 480.569 659.018C480.749 661.021 481.37 661.771 482.823 661.771C484.456 661.771 484.917 662.612 485.327 666.277C485.738 669.951 486.199 670.782 487.831 670.782C489.304 670.782 489.835 671.453 489.835 673.285C489.835 675.287 489.334 675.788 487.331 675.788C485.037 675.788 484.826 675.427 484.826 671.283C484.826 667.358 484.546 666.747 482.573 666.527C480.631 666.317 480.289 665.627 479.819 656.793C479.808 656.784 479.797 656.775 479.785 656.766H470.802L470.302 661.271C469.891 664.945 469.43 665.776 467.797 665.776C466.335 665.776 465.794 666.447 465.794 668.279C465.794 670.281 465.293 670.782 463.29 670.782C461.286 670.782 460.785 671.283 460.785 673.285C460.785 675.287 460.285 675.788 458.281 675.788C456.208 675.788 455.787 676.268 455.807 678.541C455.827 680.053 455.566 681.074 455.246 680.794C454.925 680.523 454.915 678.381 455.216 676.038C455.677 672.564 456.198 671.743 458.031 671.533C459.694 671.353 460.355 670.552 460.535 668.529C460.715 666.527 461.336 665.776 462.789 665.776C464.124 665.776 464.876 665.025 465.043 663.524C465.21 662.022 466.044 661.188 467.547 661.021Z" fill="#FA5D07" fill-opacity="0.51"/>
<path d="M492.339 685.799C490.336 685.799 489.835 685.299 489.835 683.297C489.835 681.294 490.336 680.794 492.339 680.794C494.343 680.794 494.843 681.294 494.843 683.297C494.843 685.299 494.343 685.799 492.339 685.799Z" fill="#FA5D07" fill-opacity="0.51"/>
<path d="M443.255 690.805C445.259 690.805 445.76 690.305 445.76 688.302C445.76 686.3 446.261 685.799 448.264 685.799C450.107 685.799 450.768 686.34 450.768 687.802C450.768 689.137 450.017 689.888 448.514 690.055C446.862 690.245 446.201 691.036 446.01 693.058C445.81 695.261 445.259 695.811 443.255 695.811C441.252 695.811 440.751 696.312 440.751 698.314C440.751 700.316 440.25 700.817 438.247 700.817C436.244 700.817 435.743 700.316 435.743 698.314C435.743 696.312 436.244 695.811 438.247 695.811C440.25 695.811 440.751 695.311 440.751 693.308C440.751 691.306 441.252 690.805 443.255 690.805Z" fill="#FA5D07" fill-opacity="0.51"/>
<path d="M864.473 690.805C865.836 690.805 866.527 690.085 866.637 688.553C866.727 687.311 866.978 687.882 867.188 689.804C867.408 691.736 867.328 693.869 867.028 694.56C866.727 695.251 865.575 695.811 864.473 695.811C863.011 695.811 862.47 696.482 862.47 698.314C862.47 700.316 861.969 700.817 859.966 700.817C857.962 700.817 857.461 700.316 857.461 698.314C857.461 696.312 857.962 695.811 859.966 695.811C861.969 695.811 862.47 695.311 862.47 693.308C862.47 691.476 863.011 690.805 864.473 690.805Z" fill="#FA5D07" fill-opacity="0.51"/>
<path d="M497.348 695.811C495.344 695.811 494.843 695.311 494.843 693.308C494.843 691.306 495.344 690.805 497.348 690.805C499.351 690.805 499.852 691.306 499.852 693.308C499.852 695.311 499.351 695.811 497.348 695.811Z" fill="#FA5D07" fill-opacity="0.51"/>
<path d="M313.534 697.814C313.534 696.512 314.326 695.691 315.788 695.451C317.03 695.251 318.072 695.02 318.102 694.95C318.132 694.87 318.022 695.941 317.852 697.313C317.641 699.045 316.93 699.816 315.538 699.816C314.202 699.816 313.534 699.148 313.534 697.814Z" fill="#FA5D07" fill-opacity="0.51"/>
<path d="M502.336 705.072C500.423 704.882 499.852 704.251 499.852 702.319C499.852 700.316 500.353 699.816 502.356 699.816C504.43 699.816 504.861 700.296 504.84 702.569C504.83 704.902 504.44 705.282 502.336 705.072Z" fill="#FA5D07" fill-opacity="0.51"/>
<path d="M306.022 705.823C308.025 705.823 308.526 705.322 308.526 703.32C308.526 701.318 309.027 700.817 311.03 700.817C312.873 700.817 313.534 701.358 313.534 702.819C313.534 704.154 312.783 704.905 311.281 705.072C309.628 705.262 308.967 706.053 308.776 708.076C308.576 710.278 308.025 710.829 306.022 710.829C304.188 710.829 303.517 711.369 303.517 712.831C303.517 714.166 302.85 714.833 301.514 714.833C299.991 714.833 299.521 715.494 299.541 717.587C299.561 719.098 299.3 720.12 298.98 719.839C298.659 719.569 298.649 717.426 298.95 715.084C299.4 711.69 299.911 710.829 301.514 710.829C302.986 710.829 303.517 710.168 303.517 708.326C303.517 706.323 304.018 705.823 306.022 705.823Z" fill="#FA5D07" fill-opacity="0.51"/>
<path d="M629.072 705.823C627.61 705.823 627.069 705.162 627.069 703.32C627.069 701.318 627.57 700.817 629.573 700.817C631.877 700.817 632.077 701.187 632.077 705.322C632.077 709.467 632.288 709.828 634.582 709.828C636.655 709.828 637.086 710.308 637.066 712.581C637.056 714.964 636.725 715.274 634.612 714.833C632.618 714.423 632.077 713.572 631.627 710.078C631.186 706.674 630.675 705.823 629.072 705.823Z" fill="#FA5D07" fill-opacity="0.51"/>
<path d="M428.23 709.828C430.233 709.828 430.734 709.327 430.734 707.325C430.734 705.232 431.185 704.842 433.489 704.962C435.763 705.072 435.843 705.162 433.99 705.462C432.537 705.693 431.646 706.624 431.485 708.076C431.318 709.577 430.484 710.412 428.981 710.578C427.108 710.789 426.647 711.58 426.226 715.334C425.816 719.008 425.355 719.839 423.722 719.839C422.26 719.839 421.719 720.51 421.719 722.342C421.719 724.344 421.218 724.845 419.215 724.845C417.211 724.845 416.71 725.346 416.71 727.348C416.71 729.35 416.209 729.851 414.206 729.851C412.203 729.851 411.702 730.351 411.702 732.354C411.702 734.456 411.261 734.837 408.947 734.727C406.683 734.606 406.593 734.526 408.446 734.226C410.299 733.926 410.79 733.065 411.201 729.35C411.652 725.346 411.982 724.845 414.206 724.845C416.209 724.845 416.71 724.344 416.71 722.342C416.71 720.51 417.251 719.839 418.714 719.839C420.049 719.839 420.801 719.088 420.967 717.587C421.134 716.085 421.969 715.25 423.472 715.084C425.145 714.903 425.726 714.183 425.726 712.33C425.726 710.328 426.226 709.828 428.23 709.828Z" fill="#FA5D07" fill-opacity="0.51"/>
<path d="M845.441 714.833C846.914 714.833 847.444 714.173 847.444 712.33C847.444 710.328 847.945 709.828 849.949 709.828C851.952 709.828 852.453 710.328 852.453 712.33C852.453 714.333 851.952 714.833 849.949 714.833C847.945 714.833 847.444 715.334 847.444 717.336C847.444 719.178 846.914 719.839 845.441 719.839C843.918 719.839 843.448 720.5 843.468 722.592C843.488 724.104 843.237 725.125 842.927 724.845C842.616 724.575 842.606 722.202 842.907 719.589C843.347 715.684 843.798 714.833 845.441 714.833Z" fill="#FA5D07" fill-opacity="0.51"/>
<path d="M511.872 719.839C510.537 719.839 509.869 719.172 509.869 717.837C509.869 716.502 510.537 715.835 511.872 715.835C513.505 715.835 513.966 716.676 514.377 720.34C514.787 724.014 515.248 724.845 516.881 724.845C518.554 724.845 518.975 725.686 519.385 729.851C519.806 734.026 520.227 734.857 521.89 734.857C523.522 734.857 523.983 735.698 524.394 739.362C524.805 743.036 525.265 743.867 526.898 743.867C528.571 743.867 528.992 744.708 529.402 748.873C529.823 753.048 530.244 753.879 531.907 753.879C533.579 753.879 534 754.72 534.411 758.885C534.832 763.09 535.272 763.961 537.166 764.311C539.049 764.651 538.999 764.691 536.915 764.561C534.962 764.431 534.361 763.79 534.16 761.638C533.96 759.435 533.409 758.885 531.406 758.885C529.072 758.885 528.901 758.554 528.901 753.879C528.901 749.213 528.741 748.873 526.397 748.873C524.103 748.873 523.893 748.513 523.893 744.368C523.893 740.533 523.602 739.863 521.89 739.863C520.227 739.863 519.806 739.032 519.385 734.857C518.975 730.692 518.554 729.851 516.881 729.851C515.218 729.851 514.797 729.02 514.377 724.845C513.966 720.68 513.545 719.839 511.872 719.839Z" fill="#FA5D07" fill-opacity="0.51"/>
<path d="M639.089 724.845C637.627 724.845 637.086 724.184 637.086 722.342C637.086 720.34 637.587 719.839 639.59 719.839C641.964 719.839 642.084 720.12 641.944 725.095C641.864 727.989 641.644 729.11 641.443 727.598C641.193 725.636 640.522 724.845 639.089 724.845Z" fill="#FA5D07" fill-opacity="0.51"/>
<path d="M112.692 725.586C109.937 725.786 105.66 725.786 103.176 725.586C100.702 725.376 102.955 725.205 108.184 725.205C113.423 725.205 115.447 725.376 112.692 725.586Z" fill="#FA5D07" fill-opacity="0.51"/>
<path d="M281.73 734.606C283.213 734.446 284.094 733.585 284.295 732.104C284.505 730.652 285.296 729.851 286.548 729.851C287.831 729.851 288.492 730.542 288.492 731.853C288.492 733.188 287.824 733.856 286.488 733.856C285.036 733.856 284.415 734.606 284.234 736.609C284.054 738.631 283.393 739.432 281.73 739.612C280.067 739.802 279.476 740.513 279.476 742.365C279.476 744.368 278.975 744.868 276.972 744.868C274.969 744.868 274.468 745.369 274.468 747.371C274.468 749.374 273.967 749.874 271.964 749.874C269.96 749.874 269.459 749.374 269.459 747.371C269.459 745.369 269.96 744.868 271.964 744.868C273.967 744.868 274.468 744.368 274.468 742.365C274.468 740.363 274.969 739.863 276.972 739.863C278.975 739.863 279.476 739.362 279.476 737.36C279.476 735.507 280.067 734.797 281.73 734.606Z" fill="#FA5D07" fill-opacity="0.51"/>
<path d="M648.606 739.863C646.231 739.863 646.111 739.592 646.252 734.606C646.332 731.713 646.562 730.592 646.752 732.104C647.003 734.076 647.674 734.857 649.106 734.857C650.779 734.857 651.2 735.698 651.611 739.863C652.031 744.037 652.452 744.868 654.115 744.868C655.748 744.868 656.208 745.709 656.619 749.374C657.03 753.048 657.491 753.879 659.123 753.879C660.796 753.879 661.217 754.72 661.628 758.885C661.998 762.609 662.579 763.981 663.882 764.241C665.11 764.481 665.027 764.565 663.631 764.491C662.209 764.421 661.558 763.6 661.377 761.638C661.177 759.435 660.626 758.885 658.623 758.885C656.329 758.885 656.118 758.524 656.118 754.379C656.118 750.455 655.838 749.844 653.865 749.624C651.921 749.414 651.581 748.723 651.36 744.618C651.13 740.283 650.889 739.863 648.606 739.863Z" fill="#FA5D07" fill-opacity="0.51"/>
<path d="M825.156 739.112C826.659 738.945 827.41 738.194 827.41 736.859C827.41 735.758 827.641 734.857 827.911 734.857C828.192 734.857 828.412 735.988 828.412 737.36C828.412 739.362 827.911 739.863 825.908 739.863C823.904 739.863 823.403 740.363 823.403 742.365C823.403 744.368 822.903 744.868 820.899 744.868C818.896 744.868 818.395 745.369 818.395 747.371C818.395 749.374 817.894 749.874 815.891 749.874C814.037 749.874 813.326 750.465 813.136 752.127C812.969 753.629 812.134 754.463 810.632 754.63C809.129 754.797 808.378 755.547 808.378 756.882C808.378 758.514 807.546 758.985 803.87 759.385C800.164 759.796 799.302 760.286 799.002 762.138C798.701 763.991 798.611 763.911 798.501 761.638C798.381 759.335 798.771 758.885 800.865 758.885C802.868 758.885 803.369 758.384 803.369 756.382C803.369 754.379 803.87 753.879 805.874 753.879C807.717 753.879 808.378 753.348 808.378 751.877C808.378 750.415 809.049 749.874 810.882 749.874C812.885 749.874 813.386 749.374 813.386 747.371C813.386 745.149 813.887 744.818 817.894 744.368C821.65 743.957 822.442 743.497 822.652 741.615C822.819 740.113 823.654 739.279 825.156 739.112Z" fill="#FA5D07" fill-opacity="0.51"/>
<path d="M399.431 744.117C401.104 743.937 401.685 743.216 401.685 741.364C401.685 739.362 402.185 738.861 404.189 738.861C406.192 738.861 406.693 739.362 406.693 741.364C406.693 743.367 406.192 743.867 404.189 743.867C402.185 743.867 401.685 744.368 401.685 746.37C401.685 748.372 401.184 748.873 399.18 748.873C397.177 748.873 396.726 748.423 396.927 746.62C397.093 745.119 397.928 744.284 399.431 744.117Z" fill="#FA5D07" fill-opacity="0.51"/>
<path d="M394.192 754.129C392.218 754.329 391.708 753.919 391.688 752.127C391.678 750.385 392.239 749.874 394.172 749.874C396.015 749.874 396.676 750.415 396.676 751.877C396.676 753.278 395.925 753.959 394.192 754.129Z" fill="#FA5D07" fill-opacity="0.51"/>
<path d="M256.938 763.891C258.941 763.891 259.442 763.39 259.442 761.388C259.442 759.295 259.893 758.905 262.197 759.025C264.471 759.135 264.551 759.225 262.698 759.526C260.845 759.826 260.354 760.687 259.943 764.391C259.532 768.146 259.072 768.936 257.188 769.147C255.686 769.314 254.851 770.148 254.684 771.65C254.517 773.151 253.766 773.902 252.43 773.902C251.328 773.902 250.237 773.111 250.006 772.15C249.766 771.189 249.846 770.058 250.166 769.647C250.497 769.237 251.589 768.896 252.601 768.896C253.893 768.896 254.434 768.156 254.434 766.393C254.434 764.391 254.935 763.891 256.938 763.891Z" fill="#FA5D07" fill-opacity="0.51"/>
<path d="M379.146 768.896C381.15 768.896 381.65 768.396 381.65 766.393C381.65 764.671 382.201 763.901 383.403 763.911C384.565 763.924 384.752 764.174 383.964 764.661C383.313 765.062 382.412 767.315 381.961 769.667C381.37 772.771 380.669 773.932 379.397 773.922C378.195 773.912 377.644 774.683 377.644 776.405C377.644 778.407 377.143 778.908 375.139 778.908C373.136 778.908 372.635 779.409 372.635 781.411C372.635 783.413 372.134 783.914 370.131 783.914C368.127 783.914 367.627 784.414 367.627 786.417C367.627 788.519 367.186 788.9 364.872 788.79C362.608 788.669 362.518 788.589 364.371 788.289C366.224 787.989 366.715 787.128 367.126 783.413C367.577 779.409 367.907 778.908 370.131 778.908C372.134 778.908 372.635 778.407 372.635 776.405C372.635 774.573 373.176 773.902 374.639 773.902C376.111 773.902 376.642 773.241 376.642 771.399C376.642 769.397 377.143 768.896 379.146 768.896Z" fill="#FA5D07" fill-opacity="0.51"/>
<path d="M786.34 768.896C788.885 768.896 789.345 768.506 789.345 766.393C789.345 764.391 789.846 763.891 791.85 763.891C793.853 763.891 794.354 764.391 794.354 766.393C794.354 768.396 793.803 768.946 791.599 769.147C789.576 769.337 788.784 769.998 788.594 771.65C788.414 773.322 787.693 773.902 785.839 773.902C783.836 773.902 783.335 773.402 783.335 771.399C783.335 769.287 783.806 768.896 786.34 768.896Z" fill="#FA5D07" fill-opacity="0.51"/>
<path d="M541.423 773.902C539.379 773.902 538.939 773.432 538.999 771.329C539.069 769.277 539.52 768.826 541.253 769.077C542.645 769.287 543.516 770.208 543.677 771.65C543.877 773.452 543.426 773.902 541.423 773.902Z" fill="#FA5D07" fill-opacity="0.51"/>
<path d="M668.64 773.902C666.636 773.902 666.135 773.402 666.135 771.399C666.135 769.397 666.636 768.896 668.64 768.896C670.643 768.896 671.144 769.397 671.144 771.399C671.144 773.402 670.643 773.902 668.64 773.902Z" fill="#FA5D07" fill-opacity="0.51"/>
<path d="M242.914 778.908C244.917 778.908 245.418 778.407 245.418 776.405C245.418 774.403 245.919 773.902 247.923 773.902C249.926 773.902 250.427 774.403 250.427 776.405C250.427 778.407 249.926 778.908 247.923 778.908C245.919 778.908 245.418 779.409 245.418 781.411C245.418 783.413 244.917 783.914 242.914 783.914C240.911 783.914 240.41 784.414 240.41 786.417C240.41 788.519 239.969 788.9 237.655 788.79C235.391 788.669 235.301 788.589 237.154 788.289C239.007 787.989 239.498 787.128 239.909 783.413C240.36 779.409 240.69 778.908 242.914 778.908Z" fill="#FA5D07" fill-opacity="0.51"/>
<path d="M776.824 778.908C774.821 778.908 774.32 778.407 774.32 776.405C774.32 774.403 774.821 773.902 776.824 773.902C778.827 773.902 779.328 774.403 779.328 776.405C779.328 778.407 778.827 778.908 776.824 778.908Z" fill="#FA5D07" fill-opacity="0.51"/>
<path d="M546.431 783.914C544.428 783.914 543.927 783.413 543.927 781.411C543.927 779.409 544.428 778.908 546.431 778.908C548.435 778.908 548.936 779.409 548.936 781.411C548.936 783.413 548.435 783.914 546.431 783.914Z" fill="#FA5D07" fill-opacity="0.51"/>
<path d="M673.648 783.914C671.645 783.914 671.144 783.413 671.144 781.411C671.144 779.409 671.645 778.908 673.648 778.908C675.652 778.908 676.152 779.409 676.152 781.411C676.152 783.413 675.652 783.914 673.648 783.914Z" fill="#FA5D07" fill-opacity="0.51"/>
<path d="M763.802 783.413C767.478 783.013 768.31 782.542 768.31 780.91C768.31 779.809 768.54 778.908 768.81 778.908C769.091 778.908 769.311 780.039 769.311 781.411C769.311 783.413 768.81 783.914 766.807 783.914C764.974 783.914 764.303 784.455 764.303 785.916C764.303 787.558 763.391 788.059 759.284 788.669C755.438 789.25 754.256 789.831 754.276 791.172C754.286 792.524 753.184 793.065 749.528 793.495C746.913 793.815 744.549 793.805 744.269 793.475C743.998 793.145 745.01 792.884 746.522 792.894C748.616 792.924 749.277 792.444 749.277 790.922C749.277 789.26 750.119 788.84 754.286 788.419C758.463 788.009 759.294 787.588 759.294 785.916C759.294 784.284 760.136 783.824 763.802 783.413Z" fill="#FA5D07" fill-opacity="0.51"/>
<path d="M550.939 792.924C549.603 792.924 548.936 792.257 548.936 790.922C548.936 789.46 549.607 788.92 551.44 788.92C553.744 788.92 553.944 789.29 553.944 793.425C553.944 797.57 554.155 797.93 556.448 797.93C558.792 797.93 558.953 798.271 558.953 802.936C558.953 807.612 559.123 807.942 561.457 807.942C563.831 807.942 563.951 808.222 563.811 813.198C563.731 816.091 563.51 817.213 563.31 815.701C563.06 813.739 562.389 812.948 560.956 812.948C559.293 812.948 558.873 812.117 558.452 807.942C558.041 803.777 557.62 802.936 555.948 802.936C554.285 802.936 553.864 802.105 553.443 797.93C553.033 793.765 552.612 792.924 550.939 792.924Z" fill="#FA5D07" fill-opacity="0.51"/>
<path d="M678.637 793.175C676.904 793.005 676.152 792.324 676.152 790.922C676.152 789.46 676.824 788.92 678.657 788.92C680.59 788.92 681.161 789.43 681.141 791.172C681.131 792.964 680.62 793.375 678.637 793.175Z" fill="#FA5D07" fill-opacity="0.51"/>
<path d="M730.265 798.181C734.101 797.61 735.283 797.019 735.273 795.678C735.267 794.516 736.021 793.932 737.537 793.926C739.25 793.926 739.821 794.496 739.791 796.178C739.771 798.161 739.19 798.461 735.003 798.681C731.226 798.881 730.255 799.292 730.265 800.683C730.275 801.915 729.163 802.656 726.508 803.176C724.435 803.587 721.039 803.927 718.975 803.927C716.06 803.937 715.229 804.338 715.239 805.689C715.249 806.921 714.137 807.662 711.483 808.182C709.409 808.593 706.013 808.933 703.95 808.933C700.865 808.943 700.193 809.304 700.193 810.945C700.193 812.687 699.532 812.948 695.185 812.948C690.848 812.948 690.176 812.687 690.176 810.945C690.176 809.611 689.509 808.943 688.173 808.943C686.51 808.943 686.089 808.112 685.669 803.937C685.248 799.712 684.817 798.881 682.914 798.571C681.061 798.271 681.151 798.181 683.415 798.07C685.839 797.95 686.17 798.291 686.17 800.934C686.17 803.276 686.62 803.937 688.173 803.937C689.509 803.937 690.176 804.605 690.176 805.94C690.176 807.812 690.847 807.942 700.193 807.942C709.079 807.942 710.21 807.742 710.19 806.19C710.18 804.958 711.292 804.218 713.947 803.697C716.03 803.297 719.416 802.956 721.48 802.946C724.565 802.936 725.236 802.576 725.236 800.934C725.236 799.302 726.158 798.801 730.265 798.181Z" fill="#FA5D07" fill-opacity="0.51"/>
<path d="M222.88 802.936C224.883 802.936 225.384 802.436 225.384 800.433C225.384 798.431 225.885 797.93 227.888 797.93C229.892 797.93 230.393 798.431 230.393 800.433C230.393 802.435 229.892 802.936 227.888 802.936C225.885 802.936 225.384 803.437 225.384 805.439C225.384 807.441 224.883 807.942 222.88 807.942C220.876 807.942 220.376 808.443 220.376 810.445C220.376 812.297 219.795 813.018 218.122 813.198C216.619 813.365 215.784 814.199 215.617 815.701C215.437 817.373 214.716 817.954 212.863 817.954C210.859 817.954 210.409 817.503 210.609 815.701C210.776 814.199 211.611 813.365 213.113 813.198C214.786 813.018 215.367 812.297 215.367 810.445C215.367 808.442 215.868 807.942 217.871 807.942C219.875 807.942 220.376 807.441 220.376 805.439C220.376 803.437 220.876 802.936 222.88 802.936Z" fill="#FA5D07" fill-opacity="0.51"/>
<path d="M350.347 803.186C352.02 803.006 352.601 802.285 352.601 800.433C352.601 798.431 353.102 797.93 355.105 797.93C357.109 797.93 357.609 798.431 357.609 800.433C357.609 802.435 357.109 802.936 355.105 802.936C353.102 802.936 352.601 803.437 352.601 805.439C352.601 807.441 352.1 807.942 350.097 807.942C348.093 807.942 347.643 807.491 347.843 805.689C348.01 804.188 348.845 803.353 350.347 803.186Z" fill="#FA5D07" fill-opacity="0.51"/>
<path d="M343.055 817.954C342.734 817.683 342.754 815.541 343.105 813.198C343.596 809.884 344.167 808.943 345.669 808.943C346.931 808.943 347.592 809.644 347.592 810.945C347.592 812.28 346.925 812.948 345.589 812.948C344.066 812.948 343.596 813.609 343.616 815.701C343.636 817.213 343.375 818.234 343.055 817.954Z" fill="#FA5D07" fill-opacity="0.51"/>
</svg>
